%TF.GenerationSoftware,KiCad,Pcbnew,9.0.6*%
%TF.CreationDate,2026-10-05T21:20:09+02:00*%
%TF.ProjectId,Flachbaugruppe,466c6163-6862-4617-9567-72757070652e,rev?*%
%TF.SameCoordinates,Original*%
%TF.FileFunction,Soldermask,Bot*%
%TF.FilePolarity,Negative*%
%FSLAX46Y46*%
G04 Gerber Fmt 4.6, Leading zero omitted, Abs format (unit mm)*
G04 Created by KiCad (PCBNEW 9.0.6) date 2026-10-05 21:20:09*
%MOMM*%
%LPD*%
G01*
G04 APERTURE LIST*
G04 Aperture macros list*
%AMRoundRect*
0 Rectangle with rounded corners*
0 $1 Rounding radius*
0 $2 $3 $4 $5 $6 $7 $8 $9 X,Y pos of 4 corners*
0 Add a 4 corners polygon primitive as box body*
4,1,4,$2,$3,$4,$5,$6,$7,$8,$9,$2,$3,0*
0 Add four circle primitives for the rounded corners*
1,1,$1+$1,$2,$3*
1,1,$1+$1,$4,$5*
1,1,$1+$1,$6,$7*
1,1,$1+$1,$8,$9*
0 Add four rect primitives between the rounded corners*
20,1,$1+$1,$2,$3,$4,$5,0*
20,1,$1+$1,$4,$5,$6,$7,0*
20,1,$1+$1,$6,$7,$8,$9,0*
20,1,$1+$1,$8,$9,$2,$3,0*%
G04 Aperture macros list end*
%ADD10C,3.000000*%
%ADD11R,1.800000X2.600000*%
%ADD12O,1.800000X2.600000*%
%ADD13C,10.160000*%
%ADD14C,3.200000*%
%ADD15C,2.000000*%
%ADD16R,1.800000X1.800000*%
%ADD17C,1.800000*%
%ADD18RoundRect,0.750000X1.250000X0.750000X-1.250000X0.750000X-1.250000X-0.750000X1.250000X-0.750000X0*%
%ADD19RoundRect,0.250000X-0.550000X-0.550000X0.550000X-0.550000X0.550000X0.550000X-0.550000X0.550000X0*%
%ADD20C,1.600000*%
%ADD21R,1.905000X2.000000*%
%ADD22O,1.905000X2.000000*%
%ADD23C,1.500000*%
%ADD24RoundRect,0.250001X-0.949999X-0.949999X0.949999X-0.949999X0.949999X0.949999X-0.949999X0.949999X0*%
%ADD25C,2.400000*%
%ADD26C,1.440000*%
%ADD27RoundRect,0.375000X-1.375000X-0.375000X1.375000X-0.375000X1.375000X0.375000X-1.375000X0.375000X0*%
%ADD28R,3.200000X3.200000*%
G04 APERTURE END LIST*
D10*
%TO.C,DS1*%
X112400900Y-77500000D03*
X112400900Y-108500700D03*
X187399480Y-108500700D03*
X187400000Y-77500000D03*
D11*
X117900000Y-77500000D03*
D12*
X120440000Y-77500000D03*
X122980000Y-77500000D03*
X125520000Y-77500000D03*
X128060000Y-77500000D03*
X130600000Y-77500000D03*
X133140000Y-77500000D03*
X135680000Y-77500000D03*
X138220000Y-77500000D03*
X140760000Y-77500000D03*
X143300000Y-77500000D03*
X145840000Y-77500000D03*
X148380000Y-77500000D03*
X150920000Y-77500000D03*
X153460000Y-77500000D03*
X156000000Y-77500000D03*
%TD*%
D13*
%TO.C,J1*%
X45012754Y-142500000D03*
%TD*%
D14*
%TO.C,H1*%
X187500000Y-68000000D03*
%TD*%
D15*
%TO.C,TP1*%
X145500000Y-135500000D03*
%TD*%
D13*
%TO.C,J3*%
X146012754Y-124000000D03*
%TD*%
D16*
%TO.C,RV2*%
X130012754Y-121000000D03*
D17*
X130012754Y-123500000D03*
X130012754Y-126000000D03*
D18*
X133312754Y-118500000D03*
X133312754Y-128500000D03*
%TD*%
D19*
%TO.C,U3*%
X134392754Y-143000000D03*
D20*
X134392754Y-145540000D03*
X134392754Y-148080000D03*
X134392754Y-150620000D03*
X142012754Y-150620000D03*
X142012754Y-148080000D03*
X142012754Y-145540000D03*
X142012754Y-143000000D03*
%TD*%
D21*
%TO.C,U1*%
X116932754Y-147500000D03*
D22*
X119472754Y-147500000D03*
X122012754Y-147500000D03*
%TD*%
D21*
%TO.C,U4*%
X84000000Y-71000000D03*
D22*
X86540000Y-71000000D03*
X89080000Y-71000000D03*
%TD*%
D16*
%TO.C,RV1*%
X90012754Y-120525000D03*
D17*
X90012754Y-123025000D03*
X90012754Y-125525000D03*
D18*
X93312754Y-118025000D03*
X93312754Y-128025000D03*
%TD*%
D14*
%TO.C,H4*%
X188000000Y-156500000D03*
%TD*%
D19*
%TO.C,U5*%
X168707754Y-143690000D03*
D20*
X168707754Y-146230000D03*
X168707754Y-148770000D03*
X168707754Y-151310000D03*
X176327754Y-151310000D03*
X176327754Y-148770000D03*
X176327754Y-146230000D03*
X176327754Y-143690000D03*
%TD*%
D14*
%TO.C,H2*%
X43500000Y-68000000D03*
%TD*%
%TO.C,H3*%
X43500000Y-156500000D03*
%TD*%
D13*
%TO.C,J2*%
X58512754Y-143000000D03*
%TD*%
D15*
%TO.C,TP2*%
X156000000Y-136000000D03*
%TD*%
D19*
%TO.C,C7*%
X106500000Y-133500000D03*
D20*
X108500000Y-133500000D03*
%TD*%
D19*
%TO.C,C5*%
X113012754Y-134500000D03*
D20*
X115512754Y-134500000D03*
%TD*%
D19*
%TO.C,U2*%
X149512754Y-142500000D03*
D20*
X149512754Y-145040000D03*
X149512754Y-147580000D03*
X149512754Y-150120000D03*
X149512754Y-152660000D03*
X149512754Y-155200000D03*
X149512754Y-157740000D03*
X157132754Y-157740000D03*
X157132754Y-155200000D03*
X157132754Y-152660000D03*
X157132754Y-150120000D03*
X157132754Y-147580000D03*
X157132754Y-145040000D03*
X157132754Y-142500000D03*
%TD*%
D23*
%TO.C,Y1*%
X95880000Y-82920000D03*
X100760000Y-82920000D03*
%TD*%
D13*
%TO.C,J4*%
X159000000Y-124500000D03*
%TD*%
D24*
%TO.C,C1*%
X98500000Y-148000000D03*
D25*
X106000000Y-148000000D03*
%TD*%
D26*
%TO.C,RV3*%
X105080000Y-67500000D03*
X102540000Y-67500000D03*
X100000000Y-67500000D03*
%TD*%
D16*
%TO.C,SW2*%
X102392754Y-121040000D03*
D17*
X112552754Y-121040000D03*
X112552754Y-123580000D03*
X112552754Y-126120000D03*
X102392754Y-126120000D03*
X102392754Y-123580000D03*
D27*
X104932754Y-118500000D03*
X104932754Y-128660000D03*
X110012754Y-118500000D03*
X110012754Y-128660000D03*
%TD*%
D19*
%TO.C,U6*%
X82880000Y-77340000D03*
D20*
X82880000Y-79880000D03*
X82880000Y-82420000D03*
X82880000Y-84960000D03*
X82880000Y-87500000D03*
X82880000Y-90040000D03*
X82880000Y-92580000D03*
X82880000Y-95120000D03*
X82880000Y-97660000D03*
X82880000Y-100200000D03*
X82880000Y-102740000D03*
X82880000Y-105280000D03*
X82880000Y-107820000D03*
X82880000Y-110360000D03*
X90500000Y-110360000D03*
X90500000Y-107820000D03*
X90500000Y-105280000D03*
X90500000Y-102740000D03*
X90500000Y-100200000D03*
X90500000Y-97660000D03*
X90500000Y-95120000D03*
X90500000Y-92580000D03*
X90500000Y-90040000D03*
X90500000Y-87500000D03*
X90500000Y-84960000D03*
X90500000Y-82420000D03*
X90500000Y-79880000D03*
X90500000Y-77340000D03*
%TD*%
D28*
%TO.C,D1*%
X72772754Y-144000000D03*
D14*
X77852754Y-144000000D03*
X82932754Y-144000000D03*
X88012754Y-144000000D03*
%TD*%
M02*
