%TF.GenerationSoftware,KiCad,Pcbnew,9.0.6*%
%TF.CreationDate,2026-10-05T21:20:09+02:00*%
%TF.ProjectId,Flachbaugruppe,466c6163-6862-4617-9567-72757070652e,rev?*%
%TF.SameCoordinates,Original*%
%TF.FileFunction,Legend,Top*%
%TF.FilePolarity,Positive*%
%FSLAX46Y46*%
G04 Gerber Fmt 4.6, Leading zero omitted, Abs format (unit mm)*
G04 Created by KiCad (PCBNEW 9.0.6) date 2026-10-05 21:20:09*
%MOMM*%
%LPD*%
G01*
G04 APERTURE LIST*
%ADD10C,0.150000*%
%ADD11C,0.120000*%
G04 APERTURE END LIST*
D10*
X99444642Y-93854819D02*
X99111309Y-93378628D01*
X98873214Y-93854819D02*
X98873214Y-92854819D01*
X98873214Y-92854819D02*
X99254166Y-92854819D01*
X99254166Y-92854819D02*
X99349404Y-92902438D01*
X99349404Y-92902438D02*
X99397023Y-92950057D01*
X99397023Y-92950057D02*
X99444642Y-93045295D01*
X99444642Y-93045295D02*
X99444642Y-93188152D01*
X99444642Y-93188152D02*
X99397023Y-93283390D01*
X99397023Y-93283390D02*
X99349404Y-93331009D01*
X99349404Y-93331009D02*
X99254166Y-93378628D01*
X99254166Y-93378628D02*
X98873214Y-93378628D01*
X100397023Y-93854819D02*
X99825595Y-93854819D01*
X100111309Y-93854819D02*
X100111309Y-92854819D01*
X100111309Y-92854819D02*
X100016071Y-92997676D01*
X100016071Y-92997676D02*
X99920833Y-93092914D01*
X99920833Y-93092914D02*
X99825595Y-93140533D01*
X101349404Y-93854819D02*
X100777976Y-93854819D01*
X101063690Y-93854819D02*
X101063690Y-92854819D01*
X101063690Y-92854819D02*
X100968452Y-92997676D01*
X100968452Y-92997676D02*
X100873214Y-93092914D01*
X100873214Y-93092914D02*
X100777976Y-93140533D01*
X137396087Y-154679580D02*
X137348468Y-154727200D01*
X137348468Y-154727200D02*
X137205611Y-154774819D01*
X137205611Y-154774819D02*
X137110373Y-154774819D01*
X137110373Y-154774819D02*
X136967516Y-154727200D01*
X136967516Y-154727200D02*
X136872278Y-154631961D01*
X136872278Y-154631961D02*
X136824659Y-154536723D01*
X136824659Y-154536723D02*
X136777040Y-154346247D01*
X136777040Y-154346247D02*
X136777040Y-154203390D01*
X136777040Y-154203390D02*
X136824659Y-154012914D01*
X136824659Y-154012914D02*
X136872278Y-153917676D01*
X136872278Y-153917676D02*
X136967516Y-153822438D01*
X136967516Y-153822438D02*
X137110373Y-153774819D01*
X137110373Y-153774819D02*
X137205611Y-153774819D01*
X137205611Y-153774819D02*
X137348468Y-153822438D01*
X137348468Y-153822438D02*
X137396087Y-153870057D01*
X138253230Y-154108152D02*
X138253230Y-154774819D01*
X138015135Y-153727200D02*
X137777040Y-154441485D01*
X137777040Y-154441485D02*
X138396087Y-154441485D01*
X110865714Y-74144819D02*
X110865714Y-73144819D01*
X110865714Y-73144819D02*
X111103809Y-73144819D01*
X111103809Y-73144819D02*
X111246666Y-73192438D01*
X111246666Y-73192438D02*
X111341904Y-73287676D01*
X111341904Y-73287676D02*
X111389523Y-73382914D01*
X111389523Y-73382914D02*
X111437142Y-73573390D01*
X111437142Y-73573390D02*
X111437142Y-73716247D01*
X111437142Y-73716247D02*
X111389523Y-73906723D01*
X111389523Y-73906723D02*
X111341904Y-74001961D01*
X111341904Y-74001961D02*
X111246666Y-74097200D01*
X111246666Y-74097200D02*
X111103809Y-74144819D01*
X111103809Y-74144819D02*
X110865714Y-74144819D01*
X111818095Y-74097200D02*
X111960952Y-74144819D01*
X111960952Y-74144819D02*
X112199047Y-74144819D01*
X112199047Y-74144819D02*
X112294285Y-74097200D01*
X112294285Y-74097200D02*
X112341904Y-74049580D01*
X112341904Y-74049580D02*
X112389523Y-73954342D01*
X112389523Y-73954342D02*
X112389523Y-73859104D01*
X112389523Y-73859104D02*
X112341904Y-73763866D01*
X112341904Y-73763866D02*
X112294285Y-73716247D01*
X112294285Y-73716247D02*
X112199047Y-73668628D01*
X112199047Y-73668628D02*
X112008571Y-73621009D01*
X112008571Y-73621009D02*
X111913333Y-73573390D01*
X111913333Y-73573390D02*
X111865714Y-73525771D01*
X111865714Y-73525771D02*
X111818095Y-73430533D01*
X111818095Y-73430533D02*
X111818095Y-73335295D01*
X111818095Y-73335295D02*
X111865714Y-73240057D01*
X111865714Y-73240057D02*
X111913333Y-73192438D01*
X111913333Y-73192438D02*
X112008571Y-73144819D01*
X112008571Y-73144819D02*
X112246666Y-73144819D01*
X112246666Y-73144819D02*
X112389523Y-73192438D01*
X113341904Y-74144819D02*
X112770476Y-74144819D01*
X113056190Y-74144819D02*
X113056190Y-73144819D01*
X113056190Y-73144819D02*
X112960952Y-73287676D01*
X112960952Y-73287676D02*
X112865714Y-73382914D01*
X112865714Y-73382914D02*
X112770476Y-73430533D01*
X78663333Y-69099580D02*
X78615714Y-69147200D01*
X78615714Y-69147200D02*
X78472857Y-69194819D01*
X78472857Y-69194819D02*
X78377619Y-69194819D01*
X78377619Y-69194819D02*
X78234762Y-69147200D01*
X78234762Y-69147200D02*
X78139524Y-69051961D01*
X78139524Y-69051961D02*
X78091905Y-68956723D01*
X78091905Y-68956723D02*
X78044286Y-68766247D01*
X78044286Y-68766247D02*
X78044286Y-68623390D01*
X78044286Y-68623390D02*
X78091905Y-68432914D01*
X78091905Y-68432914D02*
X78139524Y-68337676D01*
X78139524Y-68337676D02*
X78234762Y-68242438D01*
X78234762Y-68242438D02*
X78377619Y-68194819D01*
X78377619Y-68194819D02*
X78472857Y-68194819D01*
X78472857Y-68194819D02*
X78615714Y-68242438D01*
X78615714Y-68242438D02*
X78663333Y-68290057D01*
X79234762Y-68623390D02*
X79139524Y-68575771D01*
X79139524Y-68575771D02*
X79091905Y-68528152D01*
X79091905Y-68528152D02*
X79044286Y-68432914D01*
X79044286Y-68432914D02*
X79044286Y-68385295D01*
X79044286Y-68385295D02*
X79091905Y-68290057D01*
X79091905Y-68290057D02*
X79139524Y-68242438D01*
X79139524Y-68242438D02*
X79234762Y-68194819D01*
X79234762Y-68194819D02*
X79425238Y-68194819D01*
X79425238Y-68194819D02*
X79520476Y-68242438D01*
X79520476Y-68242438D02*
X79568095Y-68290057D01*
X79568095Y-68290057D02*
X79615714Y-68385295D01*
X79615714Y-68385295D02*
X79615714Y-68432914D01*
X79615714Y-68432914D02*
X79568095Y-68528152D01*
X79568095Y-68528152D02*
X79520476Y-68575771D01*
X79520476Y-68575771D02*
X79425238Y-68623390D01*
X79425238Y-68623390D02*
X79234762Y-68623390D01*
X79234762Y-68623390D02*
X79139524Y-68671009D01*
X79139524Y-68671009D02*
X79091905Y-68718628D01*
X79091905Y-68718628D02*
X79044286Y-68813866D01*
X79044286Y-68813866D02*
X79044286Y-69004342D01*
X79044286Y-69004342D02*
X79091905Y-69099580D01*
X79091905Y-69099580D02*
X79139524Y-69147200D01*
X79139524Y-69147200D02*
X79234762Y-69194819D01*
X79234762Y-69194819D02*
X79425238Y-69194819D01*
X79425238Y-69194819D02*
X79520476Y-69147200D01*
X79520476Y-69147200D02*
X79568095Y-69099580D01*
X79568095Y-69099580D02*
X79615714Y-69004342D01*
X79615714Y-69004342D02*
X79615714Y-68813866D01*
X79615714Y-68813866D02*
X79568095Y-68718628D01*
X79568095Y-68718628D02*
X79520476Y-68671009D01*
X79520476Y-68671009D02*
X79425238Y-68623390D01*
X99357142Y-101454819D02*
X99023809Y-100978628D01*
X98785714Y-101454819D02*
X98785714Y-100454819D01*
X98785714Y-100454819D02*
X99166666Y-100454819D01*
X99166666Y-100454819D02*
X99261904Y-100502438D01*
X99261904Y-100502438D02*
X99309523Y-100550057D01*
X99309523Y-100550057D02*
X99357142Y-100645295D01*
X99357142Y-100645295D02*
X99357142Y-100788152D01*
X99357142Y-100788152D02*
X99309523Y-100883390D01*
X99309523Y-100883390D02*
X99261904Y-100931009D01*
X99261904Y-100931009D02*
X99166666Y-100978628D01*
X99166666Y-100978628D02*
X98785714Y-100978628D01*
X100309523Y-101454819D02*
X99738095Y-101454819D01*
X100023809Y-101454819D02*
X100023809Y-100454819D01*
X100023809Y-100454819D02*
X99928571Y-100597676D01*
X99928571Y-100597676D02*
X99833333Y-100692914D01*
X99833333Y-100692914D02*
X99738095Y-100740533D01*
X100690476Y-100550057D02*
X100738095Y-100502438D01*
X100738095Y-100502438D02*
X100833333Y-100454819D01*
X100833333Y-100454819D02*
X101071428Y-100454819D01*
X101071428Y-100454819D02*
X101166666Y-100502438D01*
X101166666Y-100502438D02*
X101214285Y-100550057D01*
X101214285Y-100550057D02*
X101261904Y-100645295D01*
X101261904Y-100645295D02*
X101261904Y-100740533D01*
X101261904Y-100740533D02*
X101214285Y-100883390D01*
X101214285Y-100883390D02*
X100642857Y-101454819D01*
X100642857Y-101454819D02*
X101261904Y-101454819D01*
X44679420Y-135454819D02*
X44679420Y-136169104D01*
X44679420Y-136169104D02*
X44631801Y-136311961D01*
X44631801Y-136311961D02*
X44536563Y-136407200D01*
X44536563Y-136407200D02*
X44393706Y-136454819D01*
X44393706Y-136454819D02*
X44298468Y-136454819D01*
X45679420Y-136454819D02*
X45107992Y-136454819D01*
X45393706Y-136454819D02*
X45393706Y-135454819D01*
X45393706Y-135454819D02*
X45298468Y-135597676D01*
X45298468Y-135597676D02*
X45203230Y-135692914D01*
X45203230Y-135692914D02*
X45107992Y-135740533D01*
X144938095Y-137454819D02*
X145509523Y-137454819D01*
X145223809Y-138454819D02*
X145223809Y-137454819D01*
X145842857Y-138454819D02*
X145842857Y-137454819D01*
X145842857Y-137454819D02*
X146223809Y-137454819D01*
X146223809Y-137454819D02*
X146319047Y-137502438D01*
X146319047Y-137502438D02*
X146366666Y-137550057D01*
X146366666Y-137550057D02*
X146414285Y-137645295D01*
X146414285Y-137645295D02*
X146414285Y-137788152D01*
X146414285Y-137788152D02*
X146366666Y-137883390D01*
X146366666Y-137883390D02*
X146319047Y-137931009D01*
X146319047Y-137931009D02*
X146223809Y-137978628D01*
X146223809Y-137978628D02*
X145842857Y-137978628D01*
X147366666Y-138454819D02*
X146795238Y-138454819D01*
X147080952Y-138454819D02*
X147080952Y-137454819D01*
X147080952Y-137454819D02*
X146985714Y-137597676D01*
X146985714Y-137597676D02*
X146890476Y-137692914D01*
X146890476Y-137692914D02*
X146795238Y-137740533D01*
X145679420Y-116954819D02*
X145679420Y-117669104D01*
X145679420Y-117669104D02*
X145631801Y-117811961D01*
X145631801Y-117811961D02*
X145536563Y-117907200D01*
X145536563Y-117907200D02*
X145393706Y-117954819D01*
X145393706Y-117954819D02*
X145298468Y-117954819D01*
X146060373Y-116954819D02*
X146679420Y-116954819D01*
X146679420Y-116954819D02*
X146346087Y-117335771D01*
X146346087Y-117335771D02*
X146488944Y-117335771D01*
X146488944Y-117335771D02*
X146584182Y-117383390D01*
X146584182Y-117383390D02*
X146631801Y-117431009D01*
X146631801Y-117431009D02*
X146679420Y-117526247D01*
X146679420Y-117526247D02*
X146679420Y-117764342D01*
X146679420Y-117764342D02*
X146631801Y-117859580D01*
X146631801Y-117859580D02*
X146584182Y-117907200D01*
X146584182Y-117907200D02*
X146488944Y-117954819D01*
X146488944Y-117954819D02*
X146203230Y-117954819D01*
X146203230Y-117954819D02*
X146107992Y-117907200D01*
X146107992Y-117907200D02*
X146060373Y-117859580D01*
X129417515Y-132504819D02*
X129084182Y-132028628D01*
X128846087Y-132504819D02*
X128846087Y-131504819D01*
X128846087Y-131504819D02*
X129227039Y-131504819D01*
X129227039Y-131504819D02*
X129322277Y-131552438D01*
X129322277Y-131552438D02*
X129369896Y-131600057D01*
X129369896Y-131600057D02*
X129417515Y-131695295D01*
X129417515Y-131695295D02*
X129417515Y-131838152D01*
X129417515Y-131838152D02*
X129369896Y-131933390D01*
X129369896Y-131933390D02*
X129322277Y-131981009D01*
X129322277Y-131981009D02*
X129227039Y-132028628D01*
X129227039Y-132028628D02*
X128846087Y-132028628D01*
X129703230Y-131504819D02*
X130036563Y-132504819D01*
X130036563Y-132504819D02*
X130369896Y-131504819D01*
X130655611Y-131600057D02*
X130703230Y-131552438D01*
X130703230Y-131552438D02*
X130798468Y-131504819D01*
X130798468Y-131504819D02*
X131036563Y-131504819D01*
X131036563Y-131504819D02*
X131131801Y-131552438D01*
X131131801Y-131552438D02*
X131179420Y-131600057D01*
X131179420Y-131600057D02*
X131227039Y-131695295D01*
X131227039Y-131695295D02*
X131227039Y-131790533D01*
X131227039Y-131790533D02*
X131179420Y-131933390D01*
X131179420Y-131933390D02*
X130607992Y-132504819D01*
X130607992Y-132504819D02*
X131227039Y-132504819D01*
X137440849Y-140124819D02*
X137440849Y-140934342D01*
X137440849Y-140934342D02*
X137488468Y-141029580D01*
X137488468Y-141029580D02*
X137536087Y-141077200D01*
X137536087Y-141077200D02*
X137631325Y-141124819D01*
X137631325Y-141124819D02*
X137821801Y-141124819D01*
X137821801Y-141124819D02*
X137917039Y-141077200D01*
X137917039Y-141077200D02*
X137964658Y-141029580D01*
X137964658Y-141029580D02*
X138012277Y-140934342D01*
X138012277Y-140934342D02*
X138012277Y-140124819D01*
X138393230Y-140124819D02*
X139012277Y-140124819D01*
X139012277Y-140124819D02*
X138678944Y-140505771D01*
X138678944Y-140505771D02*
X138821801Y-140505771D01*
X138821801Y-140505771D02*
X138917039Y-140553390D01*
X138917039Y-140553390D02*
X138964658Y-140601009D01*
X138964658Y-140601009D02*
X139012277Y-140696247D01*
X139012277Y-140696247D02*
X139012277Y-140934342D01*
X139012277Y-140934342D02*
X138964658Y-141029580D01*
X138964658Y-141029580D02*
X138917039Y-141077200D01*
X138917039Y-141077200D02*
X138821801Y-141124819D01*
X138821801Y-141124819D02*
X138536087Y-141124819D01*
X138536087Y-141124819D02*
X138440849Y-141077200D01*
X138440849Y-141077200D02*
X138393230Y-141029580D01*
X118710849Y-142854819D02*
X118710849Y-143664342D01*
X118710849Y-143664342D02*
X118758468Y-143759580D01*
X118758468Y-143759580D02*
X118806087Y-143807200D01*
X118806087Y-143807200D02*
X118901325Y-143854819D01*
X118901325Y-143854819D02*
X119091801Y-143854819D01*
X119091801Y-143854819D02*
X119187039Y-143807200D01*
X119187039Y-143807200D02*
X119234658Y-143759580D01*
X119234658Y-143759580D02*
X119282277Y-143664342D01*
X119282277Y-143664342D02*
X119282277Y-142854819D01*
X120282277Y-143854819D02*
X119710849Y-143854819D01*
X119996563Y-143854819D02*
X119996563Y-142854819D01*
X119996563Y-142854819D02*
X119901325Y-142997676D01*
X119901325Y-142997676D02*
X119806087Y-143092914D01*
X119806087Y-143092914D02*
X119710849Y-143140533D01*
X78920833Y-84804819D02*
X78587500Y-84328628D01*
X78349405Y-84804819D02*
X78349405Y-83804819D01*
X78349405Y-83804819D02*
X78730357Y-83804819D01*
X78730357Y-83804819D02*
X78825595Y-83852438D01*
X78825595Y-83852438D02*
X78873214Y-83900057D01*
X78873214Y-83900057D02*
X78920833Y-83995295D01*
X78920833Y-83995295D02*
X78920833Y-84138152D01*
X78920833Y-84138152D02*
X78873214Y-84233390D01*
X78873214Y-84233390D02*
X78825595Y-84281009D01*
X78825595Y-84281009D02*
X78730357Y-84328628D01*
X78730357Y-84328628D02*
X78349405Y-84328628D01*
X79397024Y-84804819D02*
X79587500Y-84804819D01*
X79587500Y-84804819D02*
X79682738Y-84757200D01*
X79682738Y-84757200D02*
X79730357Y-84709580D01*
X79730357Y-84709580D02*
X79825595Y-84566723D01*
X79825595Y-84566723D02*
X79873214Y-84376247D01*
X79873214Y-84376247D02*
X79873214Y-83995295D01*
X79873214Y-83995295D02*
X79825595Y-83900057D01*
X79825595Y-83900057D02*
X79777976Y-83852438D01*
X79777976Y-83852438D02*
X79682738Y-83804819D01*
X79682738Y-83804819D02*
X79492262Y-83804819D01*
X79492262Y-83804819D02*
X79397024Y-83852438D01*
X79397024Y-83852438D02*
X79349405Y-83900057D01*
X79349405Y-83900057D02*
X79301786Y-83995295D01*
X79301786Y-83995295D02*
X79301786Y-84233390D01*
X79301786Y-84233390D02*
X79349405Y-84328628D01*
X79349405Y-84328628D02*
X79397024Y-84376247D01*
X79397024Y-84376247D02*
X79492262Y-84423866D01*
X79492262Y-84423866D02*
X79682738Y-84423866D01*
X79682738Y-84423866D02*
X79777976Y-84376247D01*
X79777976Y-84376247D02*
X79825595Y-84328628D01*
X79825595Y-84328628D02*
X79873214Y-84233390D01*
X85778095Y-66354819D02*
X85778095Y-67164342D01*
X85778095Y-67164342D02*
X85825714Y-67259580D01*
X85825714Y-67259580D02*
X85873333Y-67307200D01*
X85873333Y-67307200D02*
X85968571Y-67354819D01*
X85968571Y-67354819D02*
X86159047Y-67354819D01*
X86159047Y-67354819D02*
X86254285Y-67307200D01*
X86254285Y-67307200D02*
X86301904Y-67259580D01*
X86301904Y-67259580D02*
X86349523Y-67164342D01*
X86349523Y-67164342D02*
X86349523Y-66354819D01*
X87254285Y-66688152D02*
X87254285Y-67354819D01*
X87016190Y-66307200D02*
X86778095Y-67021485D01*
X86778095Y-67021485D02*
X87397142Y-67021485D01*
X89417515Y-132029819D02*
X89084182Y-131553628D01*
X88846087Y-132029819D02*
X88846087Y-131029819D01*
X88846087Y-131029819D02*
X89227039Y-131029819D01*
X89227039Y-131029819D02*
X89322277Y-131077438D01*
X89322277Y-131077438D02*
X89369896Y-131125057D01*
X89369896Y-131125057D02*
X89417515Y-131220295D01*
X89417515Y-131220295D02*
X89417515Y-131363152D01*
X89417515Y-131363152D02*
X89369896Y-131458390D01*
X89369896Y-131458390D02*
X89322277Y-131506009D01*
X89322277Y-131506009D02*
X89227039Y-131553628D01*
X89227039Y-131553628D02*
X88846087Y-131553628D01*
X89703230Y-131029819D02*
X90036563Y-132029819D01*
X90036563Y-132029819D02*
X90369896Y-131029819D01*
X91227039Y-132029819D02*
X90655611Y-132029819D01*
X90941325Y-132029819D02*
X90941325Y-131029819D01*
X90941325Y-131029819D02*
X90846087Y-131172676D01*
X90846087Y-131172676D02*
X90750849Y-131267914D01*
X90750849Y-131267914D02*
X90655611Y-131315533D01*
X143769642Y-74604819D02*
X143436309Y-74128628D01*
X143198214Y-74604819D02*
X143198214Y-73604819D01*
X143198214Y-73604819D02*
X143579166Y-73604819D01*
X143579166Y-73604819D02*
X143674404Y-73652438D01*
X143674404Y-73652438D02*
X143722023Y-73700057D01*
X143722023Y-73700057D02*
X143769642Y-73795295D01*
X143769642Y-73795295D02*
X143769642Y-73938152D01*
X143769642Y-73938152D02*
X143722023Y-74033390D01*
X143722023Y-74033390D02*
X143674404Y-74081009D01*
X143674404Y-74081009D02*
X143579166Y-74128628D01*
X143579166Y-74128628D02*
X143198214Y-74128628D01*
X144722023Y-74604819D02*
X144150595Y-74604819D01*
X144436309Y-74604819D02*
X144436309Y-73604819D01*
X144436309Y-73604819D02*
X144341071Y-73747676D01*
X144341071Y-73747676D02*
X144245833Y-73842914D01*
X144245833Y-73842914D02*
X144150595Y-73890533D01*
X145341071Y-73604819D02*
X145436309Y-73604819D01*
X145436309Y-73604819D02*
X145531547Y-73652438D01*
X145531547Y-73652438D02*
X145579166Y-73700057D01*
X145579166Y-73700057D02*
X145626785Y-73795295D01*
X145626785Y-73795295D02*
X145674404Y-73985771D01*
X145674404Y-73985771D02*
X145674404Y-74223866D01*
X145674404Y-74223866D02*
X145626785Y-74414342D01*
X145626785Y-74414342D02*
X145579166Y-74509580D01*
X145579166Y-74509580D02*
X145531547Y-74557200D01*
X145531547Y-74557200D02*
X145436309Y-74604819D01*
X145436309Y-74604819D02*
X145341071Y-74604819D01*
X145341071Y-74604819D02*
X145245833Y-74557200D01*
X145245833Y-74557200D02*
X145198214Y-74509580D01*
X145198214Y-74509580D02*
X145150595Y-74414342D01*
X145150595Y-74414342D02*
X145102976Y-74223866D01*
X145102976Y-74223866D02*
X145102976Y-73985771D01*
X145102976Y-73985771D02*
X145150595Y-73795295D01*
X145150595Y-73795295D02*
X145198214Y-73700057D01*
X145198214Y-73700057D02*
X145245833Y-73652438D01*
X145245833Y-73652438D02*
X145341071Y-73604819D01*
X179758587Y-145304819D02*
X179425254Y-144828628D01*
X179187159Y-145304819D02*
X179187159Y-144304819D01*
X179187159Y-144304819D02*
X179568111Y-144304819D01*
X179568111Y-144304819D02*
X179663349Y-144352438D01*
X179663349Y-144352438D02*
X179710968Y-144400057D01*
X179710968Y-144400057D02*
X179758587Y-144495295D01*
X179758587Y-144495295D02*
X179758587Y-144638152D01*
X179758587Y-144638152D02*
X179710968Y-144733390D01*
X179710968Y-144733390D02*
X179663349Y-144781009D01*
X179663349Y-144781009D02*
X179568111Y-144828628D01*
X179568111Y-144828628D02*
X179187159Y-144828628D01*
X180615730Y-144304819D02*
X180425254Y-144304819D01*
X180425254Y-144304819D02*
X180330016Y-144352438D01*
X180330016Y-144352438D02*
X180282397Y-144400057D01*
X180282397Y-144400057D02*
X180187159Y-144542914D01*
X180187159Y-144542914D02*
X180139540Y-144733390D01*
X180139540Y-144733390D02*
X180139540Y-145114342D01*
X180139540Y-145114342D02*
X180187159Y-145209580D01*
X180187159Y-145209580D02*
X180234778Y-145257200D01*
X180234778Y-145257200D02*
X180330016Y-145304819D01*
X180330016Y-145304819D02*
X180520492Y-145304819D01*
X180520492Y-145304819D02*
X180615730Y-145257200D01*
X180615730Y-145257200D02*
X180663349Y-145209580D01*
X180663349Y-145209580D02*
X180710968Y-145114342D01*
X180710968Y-145114342D02*
X180710968Y-144876247D01*
X180710968Y-144876247D02*
X180663349Y-144781009D01*
X180663349Y-144781009D02*
X180615730Y-144733390D01*
X180615730Y-144733390D02*
X180520492Y-144685771D01*
X180520492Y-144685771D02*
X180330016Y-144685771D01*
X180330016Y-144685771D02*
X180234778Y-144733390D01*
X180234778Y-144733390D02*
X180187159Y-144781009D01*
X180187159Y-144781009D02*
X180139540Y-144876247D01*
X171755849Y-140814819D02*
X171755849Y-141624342D01*
X171755849Y-141624342D02*
X171803468Y-141719580D01*
X171803468Y-141719580D02*
X171851087Y-141767200D01*
X171851087Y-141767200D02*
X171946325Y-141814819D01*
X171946325Y-141814819D02*
X172136801Y-141814819D01*
X172136801Y-141814819D02*
X172232039Y-141767200D01*
X172232039Y-141767200D02*
X172279658Y-141719580D01*
X172279658Y-141719580D02*
X172327277Y-141624342D01*
X172327277Y-141624342D02*
X172327277Y-140814819D01*
X173279658Y-140814819D02*
X172803468Y-140814819D01*
X172803468Y-140814819D02*
X172755849Y-141291009D01*
X172755849Y-141291009D02*
X172803468Y-141243390D01*
X172803468Y-141243390D02*
X172898706Y-141195771D01*
X172898706Y-141195771D02*
X173136801Y-141195771D01*
X173136801Y-141195771D02*
X173232039Y-141243390D01*
X173232039Y-141243390D02*
X173279658Y-141291009D01*
X173279658Y-141291009D02*
X173327277Y-141386247D01*
X173327277Y-141386247D02*
X173327277Y-141624342D01*
X173327277Y-141624342D02*
X173279658Y-141719580D01*
X173279658Y-141719580D02*
X173232039Y-141767200D01*
X173232039Y-141767200D02*
X173136801Y-141814819D01*
X173136801Y-141814819D02*
X172898706Y-141814819D01*
X172898706Y-141814819D02*
X172803468Y-141767200D01*
X172803468Y-141767200D02*
X172755849Y-141719580D01*
X169307142Y-137679580D02*
X169259523Y-137727200D01*
X169259523Y-137727200D02*
X169116666Y-137774819D01*
X169116666Y-137774819D02*
X169021428Y-137774819D01*
X169021428Y-137774819D02*
X168878571Y-137727200D01*
X168878571Y-137727200D02*
X168783333Y-137631961D01*
X168783333Y-137631961D02*
X168735714Y-137536723D01*
X168735714Y-137536723D02*
X168688095Y-137346247D01*
X168688095Y-137346247D02*
X168688095Y-137203390D01*
X168688095Y-137203390D02*
X168735714Y-137012914D01*
X168735714Y-137012914D02*
X168783333Y-136917676D01*
X168783333Y-136917676D02*
X168878571Y-136822438D01*
X168878571Y-136822438D02*
X169021428Y-136774819D01*
X169021428Y-136774819D02*
X169116666Y-136774819D01*
X169116666Y-136774819D02*
X169259523Y-136822438D01*
X169259523Y-136822438D02*
X169307142Y-136870057D01*
X170259523Y-137774819D02*
X169688095Y-137774819D01*
X169973809Y-137774819D02*
X169973809Y-136774819D01*
X169973809Y-136774819D02*
X169878571Y-136917676D01*
X169878571Y-136917676D02*
X169783333Y-137012914D01*
X169783333Y-137012914D02*
X169688095Y-137060533D01*
X171164285Y-136774819D02*
X170688095Y-136774819D01*
X170688095Y-136774819D02*
X170640476Y-137251009D01*
X170640476Y-137251009D02*
X170688095Y-137203390D01*
X170688095Y-137203390D02*
X170783333Y-137155771D01*
X170783333Y-137155771D02*
X171021428Y-137155771D01*
X171021428Y-137155771D02*
X171116666Y-137203390D01*
X171116666Y-137203390D02*
X171164285Y-137251009D01*
X171164285Y-137251009D02*
X171211904Y-137346247D01*
X171211904Y-137346247D02*
X171211904Y-137584342D01*
X171211904Y-137584342D02*
X171164285Y-137679580D01*
X171164285Y-137679580D02*
X171116666Y-137727200D01*
X171116666Y-137727200D02*
X171021428Y-137774819D01*
X171021428Y-137774819D02*
X170783333Y-137774819D01*
X170783333Y-137774819D02*
X170688095Y-137727200D01*
X170688095Y-137727200D02*
X170640476Y-137679580D01*
X58179420Y-135954819D02*
X58179420Y-136669104D01*
X58179420Y-136669104D02*
X58131801Y-136811961D01*
X58131801Y-136811961D02*
X58036563Y-136907200D01*
X58036563Y-136907200D02*
X57893706Y-136954819D01*
X57893706Y-136954819D02*
X57798468Y-136954819D01*
X58607992Y-136050057D02*
X58655611Y-136002438D01*
X58655611Y-136002438D02*
X58750849Y-135954819D01*
X58750849Y-135954819D02*
X58988944Y-135954819D01*
X58988944Y-135954819D02*
X59084182Y-136002438D01*
X59084182Y-136002438D02*
X59131801Y-136050057D01*
X59131801Y-136050057D02*
X59179420Y-136145295D01*
X59179420Y-136145295D02*
X59179420Y-136240533D01*
X59179420Y-136240533D02*
X59131801Y-136383390D01*
X59131801Y-136383390D02*
X58560373Y-136954819D01*
X58560373Y-136954819D02*
X59179420Y-136954819D01*
X179758587Y-148804819D02*
X179425254Y-148328628D01*
X179187159Y-148804819D02*
X179187159Y-147804819D01*
X179187159Y-147804819D02*
X179568111Y-147804819D01*
X179568111Y-147804819D02*
X179663349Y-147852438D01*
X179663349Y-147852438D02*
X179710968Y-147900057D01*
X179710968Y-147900057D02*
X179758587Y-147995295D01*
X179758587Y-147995295D02*
X179758587Y-148138152D01*
X179758587Y-148138152D02*
X179710968Y-148233390D01*
X179710968Y-148233390D02*
X179663349Y-148281009D01*
X179663349Y-148281009D02*
X179568111Y-148328628D01*
X179568111Y-148328628D02*
X179187159Y-148328628D01*
X180091921Y-147804819D02*
X180758587Y-147804819D01*
X180758587Y-147804819D02*
X180330016Y-148804819D01*
X155438095Y-137954819D02*
X156009523Y-137954819D01*
X155723809Y-138954819D02*
X155723809Y-137954819D01*
X156342857Y-138954819D02*
X156342857Y-137954819D01*
X156342857Y-137954819D02*
X156723809Y-137954819D01*
X156723809Y-137954819D02*
X156819047Y-138002438D01*
X156819047Y-138002438D02*
X156866666Y-138050057D01*
X156866666Y-138050057D02*
X156914285Y-138145295D01*
X156914285Y-138145295D02*
X156914285Y-138288152D01*
X156914285Y-138288152D02*
X156866666Y-138383390D01*
X156866666Y-138383390D02*
X156819047Y-138431009D01*
X156819047Y-138431009D02*
X156723809Y-138478628D01*
X156723809Y-138478628D02*
X156342857Y-138478628D01*
X157295238Y-138050057D02*
X157342857Y-138002438D01*
X157342857Y-138002438D02*
X157438095Y-137954819D01*
X157438095Y-137954819D02*
X157676190Y-137954819D01*
X157676190Y-137954819D02*
X157771428Y-138002438D01*
X157771428Y-138002438D02*
X157819047Y-138050057D01*
X157819047Y-138050057D02*
X157866666Y-138145295D01*
X157866666Y-138145295D02*
X157866666Y-138240533D01*
X157866666Y-138240533D02*
X157819047Y-138383390D01*
X157819047Y-138383390D02*
X157247619Y-138954819D01*
X157247619Y-138954819D02*
X157866666Y-138954819D01*
X127333333Y-147454819D02*
X127000000Y-146978628D01*
X126761905Y-147454819D02*
X126761905Y-146454819D01*
X126761905Y-146454819D02*
X127142857Y-146454819D01*
X127142857Y-146454819D02*
X127238095Y-146502438D01*
X127238095Y-146502438D02*
X127285714Y-146550057D01*
X127285714Y-146550057D02*
X127333333Y-146645295D01*
X127333333Y-146645295D02*
X127333333Y-146788152D01*
X127333333Y-146788152D02*
X127285714Y-146883390D01*
X127285714Y-146883390D02*
X127238095Y-146931009D01*
X127238095Y-146931009D02*
X127142857Y-146978628D01*
X127142857Y-146978628D02*
X126761905Y-146978628D01*
X127714286Y-146550057D02*
X127761905Y-146502438D01*
X127761905Y-146502438D02*
X127857143Y-146454819D01*
X127857143Y-146454819D02*
X128095238Y-146454819D01*
X128095238Y-146454819D02*
X128190476Y-146502438D01*
X128190476Y-146502438D02*
X128238095Y-146550057D01*
X128238095Y-146550057D02*
X128285714Y-146645295D01*
X128285714Y-146645295D02*
X128285714Y-146740533D01*
X128285714Y-146740533D02*
X128238095Y-146883390D01*
X128238095Y-146883390D02*
X127666667Y-147454819D01*
X127666667Y-147454819D02*
X128285714Y-147454819D01*
X101796087Y-132679580D02*
X101748468Y-132727200D01*
X101748468Y-132727200D02*
X101605611Y-132774819D01*
X101605611Y-132774819D02*
X101510373Y-132774819D01*
X101510373Y-132774819D02*
X101367516Y-132727200D01*
X101367516Y-132727200D02*
X101272278Y-132631961D01*
X101272278Y-132631961D02*
X101224659Y-132536723D01*
X101224659Y-132536723D02*
X101177040Y-132346247D01*
X101177040Y-132346247D02*
X101177040Y-132203390D01*
X101177040Y-132203390D02*
X101224659Y-132012914D01*
X101224659Y-132012914D02*
X101272278Y-131917676D01*
X101272278Y-131917676D02*
X101367516Y-131822438D01*
X101367516Y-131822438D02*
X101510373Y-131774819D01*
X101510373Y-131774819D02*
X101605611Y-131774819D01*
X101605611Y-131774819D02*
X101748468Y-131822438D01*
X101748468Y-131822438D02*
X101796087Y-131870057D01*
X102653230Y-131774819D02*
X102462754Y-131774819D01*
X102462754Y-131774819D02*
X102367516Y-131822438D01*
X102367516Y-131822438D02*
X102319897Y-131870057D01*
X102319897Y-131870057D02*
X102224659Y-132012914D01*
X102224659Y-132012914D02*
X102177040Y-132203390D01*
X102177040Y-132203390D02*
X102177040Y-132584342D01*
X102177040Y-132584342D02*
X102224659Y-132679580D01*
X102224659Y-132679580D02*
X102272278Y-132727200D01*
X102272278Y-132727200D02*
X102367516Y-132774819D01*
X102367516Y-132774819D02*
X102557992Y-132774819D01*
X102557992Y-132774819D02*
X102653230Y-132727200D01*
X102653230Y-132727200D02*
X102700849Y-132679580D01*
X102700849Y-132679580D02*
X102748468Y-132584342D01*
X102748468Y-132584342D02*
X102748468Y-132346247D01*
X102748468Y-132346247D02*
X102700849Y-132251009D01*
X102700849Y-132251009D02*
X102653230Y-132203390D01*
X102653230Y-132203390D02*
X102557992Y-132155771D01*
X102557992Y-132155771D02*
X102367516Y-132155771D01*
X102367516Y-132155771D02*
X102272278Y-132203390D01*
X102272278Y-132203390D02*
X102224659Y-132251009D01*
X102224659Y-132251009D02*
X102177040Y-132346247D01*
X107333333Y-138859580D02*
X107285714Y-138907200D01*
X107285714Y-138907200D02*
X107142857Y-138954819D01*
X107142857Y-138954819D02*
X107047619Y-138954819D01*
X107047619Y-138954819D02*
X106904762Y-138907200D01*
X106904762Y-138907200D02*
X106809524Y-138811961D01*
X106809524Y-138811961D02*
X106761905Y-138716723D01*
X106761905Y-138716723D02*
X106714286Y-138526247D01*
X106714286Y-138526247D02*
X106714286Y-138383390D01*
X106714286Y-138383390D02*
X106761905Y-138192914D01*
X106761905Y-138192914D02*
X106809524Y-138097676D01*
X106809524Y-138097676D02*
X106904762Y-138002438D01*
X106904762Y-138002438D02*
X107047619Y-137954819D01*
X107047619Y-137954819D02*
X107142857Y-137954819D01*
X107142857Y-137954819D02*
X107285714Y-138002438D01*
X107285714Y-138002438D02*
X107333333Y-138050057D01*
X107666667Y-137954819D02*
X108333333Y-137954819D01*
X108333333Y-137954819D02*
X107904762Y-138954819D01*
X78920833Y-81304819D02*
X78587500Y-80828628D01*
X78349405Y-81304819D02*
X78349405Y-80304819D01*
X78349405Y-80304819D02*
X78730357Y-80304819D01*
X78730357Y-80304819D02*
X78825595Y-80352438D01*
X78825595Y-80352438D02*
X78873214Y-80400057D01*
X78873214Y-80400057D02*
X78920833Y-80495295D01*
X78920833Y-80495295D02*
X78920833Y-80638152D01*
X78920833Y-80638152D02*
X78873214Y-80733390D01*
X78873214Y-80733390D02*
X78825595Y-80781009D01*
X78825595Y-80781009D02*
X78730357Y-80828628D01*
X78730357Y-80828628D02*
X78349405Y-80828628D01*
X79492262Y-80733390D02*
X79397024Y-80685771D01*
X79397024Y-80685771D02*
X79349405Y-80638152D01*
X79349405Y-80638152D02*
X79301786Y-80542914D01*
X79301786Y-80542914D02*
X79301786Y-80495295D01*
X79301786Y-80495295D02*
X79349405Y-80400057D01*
X79349405Y-80400057D02*
X79397024Y-80352438D01*
X79397024Y-80352438D02*
X79492262Y-80304819D01*
X79492262Y-80304819D02*
X79682738Y-80304819D01*
X79682738Y-80304819D02*
X79777976Y-80352438D01*
X79777976Y-80352438D02*
X79825595Y-80400057D01*
X79825595Y-80400057D02*
X79873214Y-80495295D01*
X79873214Y-80495295D02*
X79873214Y-80542914D01*
X79873214Y-80542914D02*
X79825595Y-80638152D01*
X79825595Y-80638152D02*
X79777976Y-80685771D01*
X79777976Y-80685771D02*
X79682738Y-80733390D01*
X79682738Y-80733390D02*
X79492262Y-80733390D01*
X79492262Y-80733390D02*
X79397024Y-80781009D01*
X79397024Y-80781009D02*
X79349405Y-80828628D01*
X79349405Y-80828628D02*
X79301786Y-80923866D01*
X79301786Y-80923866D02*
X79301786Y-81114342D01*
X79301786Y-81114342D02*
X79349405Y-81209580D01*
X79349405Y-81209580D02*
X79397024Y-81257200D01*
X79397024Y-81257200D02*
X79492262Y-81304819D01*
X79492262Y-81304819D02*
X79682738Y-81304819D01*
X79682738Y-81304819D02*
X79777976Y-81257200D01*
X79777976Y-81257200D02*
X79825595Y-81209580D01*
X79825595Y-81209580D02*
X79873214Y-81114342D01*
X79873214Y-81114342D02*
X79873214Y-80923866D01*
X79873214Y-80923866D02*
X79825595Y-80828628D01*
X79825595Y-80828628D02*
X79777976Y-80781009D01*
X79777976Y-80781009D02*
X79682738Y-80733390D01*
X114096087Y-130459580D02*
X114048468Y-130507200D01*
X114048468Y-130507200D02*
X113905611Y-130554819D01*
X113905611Y-130554819D02*
X113810373Y-130554819D01*
X113810373Y-130554819D02*
X113667516Y-130507200D01*
X113667516Y-130507200D02*
X113572278Y-130411961D01*
X113572278Y-130411961D02*
X113524659Y-130316723D01*
X113524659Y-130316723D02*
X113477040Y-130126247D01*
X113477040Y-130126247D02*
X113477040Y-129983390D01*
X113477040Y-129983390D02*
X113524659Y-129792914D01*
X113524659Y-129792914D02*
X113572278Y-129697676D01*
X113572278Y-129697676D02*
X113667516Y-129602438D01*
X113667516Y-129602438D02*
X113810373Y-129554819D01*
X113810373Y-129554819D02*
X113905611Y-129554819D01*
X113905611Y-129554819D02*
X114048468Y-129602438D01*
X114048468Y-129602438D02*
X114096087Y-129650057D01*
X115000849Y-129554819D02*
X114524659Y-129554819D01*
X114524659Y-129554819D02*
X114477040Y-130031009D01*
X114477040Y-130031009D02*
X114524659Y-129983390D01*
X114524659Y-129983390D02*
X114619897Y-129935771D01*
X114619897Y-129935771D02*
X114857992Y-129935771D01*
X114857992Y-129935771D02*
X114953230Y-129983390D01*
X114953230Y-129983390D02*
X115000849Y-130031009D01*
X115000849Y-130031009D02*
X115048468Y-130126247D01*
X115048468Y-130126247D02*
X115048468Y-130364342D01*
X115048468Y-130364342D02*
X115000849Y-130459580D01*
X115000849Y-130459580D02*
X114953230Y-130507200D01*
X114953230Y-130507200D02*
X114857992Y-130554819D01*
X114857992Y-130554819D02*
X114619897Y-130554819D01*
X114619897Y-130554819D02*
X114524659Y-130507200D01*
X114524659Y-130507200D02*
X114477040Y-130459580D01*
X152560849Y-139624819D02*
X152560849Y-140434342D01*
X152560849Y-140434342D02*
X152608468Y-140529580D01*
X152608468Y-140529580D02*
X152656087Y-140577200D01*
X152656087Y-140577200D02*
X152751325Y-140624819D01*
X152751325Y-140624819D02*
X152941801Y-140624819D01*
X152941801Y-140624819D02*
X153037039Y-140577200D01*
X153037039Y-140577200D02*
X153084658Y-140529580D01*
X153084658Y-140529580D02*
X153132277Y-140434342D01*
X153132277Y-140434342D02*
X153132277Y-139624819D01*
X153560849Y-139720057D02*
X153608468Y-139672438D01*
X153608468Y-139672438D02*
X153703706Y-139624819D01*
X153703706Y-139624819D02*
X153941801Y-139624819D01*
X153941801Y-139624819D02*
X154037039Y-139672438D01*
X154037039Y-139672438D02*
X154084658Y-139720057D01*
X154084658Y-139720057D02*
X154132277Y-139815295D01*
X154132277Y-139815295D02*
X154132277Y-139910533D01*
X154132277Y-139910533D02*
X154084658Y-140053390D01*
X154084658Y-140053390D02*
X153513230Y-140624819D01*
X153513230Y-140624819D02*
X154132277Y-140624819D01*
X79245833Y-76304819D02*
X78912500Y-75828628D01*
X78674405Y-76304819D02*
X78674405Y-75304819D01*
X78674405Y-75304819D02*
X79055357Y-75304819D01*
X79055357Y-75304819D02*
X79150595Y-75352438D01*
X79150595Y-75352438D02*
X79198214Y-75400057D01*
X79198214Y-75400057D02*
X79245833Y-75495295D01*
X79245833Y-75495295D02*
X79245833Y-75638152D01*
X79245833Y-75638152D02*
X79198214Y-75733390D01*
X79198214Y-75733390D02*
X79150595Y-75781009D01*
X79150595Y-75781009D02*
X79055357Y-75828628D01*
X79055357Y-75828628D02*
X78674405Y-75828628D01*
X80150595Y-75304819D02*
X79674405Y-75304819D01*
X79674405Y-75304819D02*
X79626786Y-75781009D01*
X79626786Y-75781009D02*
X79674405Y-75733390D01*
X79674405Y-75733390D02*
X79769643Y-75685771D01*
X79769643Y-75685771D02*
X80007738Y-75685771D01*
X80007738Y-75685771D02*
X80102976Y-75733390D01*
X80102976Y-75733390D02*
X80150595Y-75781009D01*
X80150595Y-75781009D02*
X80198214Y-75876247D01*
X80198214Y-75876247D02*
X80198214Y-76114342D01*
X80198214Y-76114342D02*
X80150595Y-76209580D01*
X80150595Y-76209580D02*
X80102976Y-76257200D01*
X80102976Y-76257200D02*
X80007738Y-76304819D01*
X80007738Y-76304819D02*
X79769643Y-76304819D01*
X79769643Y-76304819D02*
X79674405Y-76257200D01*
X79674405Y-76257200D02*
X79626786Y-76209580D01*
X97843809Y-79378628D02*
X97843809Y-79854819D01*
X97510476Y-78854819D02*
X97843809Y-79378628D01*
X97843809Y-79378628D02*
X98177142Y-78854819D01*
X99034285Y-79854819D02*
X98462857Y-79854819D01*
X98748571Y-79854819D02*
X98748571Y-78854819D01*
X98748571Y-78854819D02*
X98653333Y-78997676D01*
X98653333Y-78997676D02*
X98558095Y-79092914D01*
X98558095Y-79092914D02*
X98462857Y-79140533D01*
X93687142Y-87599580D02*
X93639523Y-87647200D01*
X93639523Y-87647200D02*
X93496666Y-87694819D01*
X93496666Y-87694819D02*
X93401428Y-87694819D01*
X93401428Y-87694819D02*
X93258571Y-87647200D01*
X93258571Y-87647200D02*
X93163333Y-87551961D01*
X93163333Y-87551961D02*
X93115714Y-87456723D01*
X93115714Y-87456723D02*
X93068095Y-87266247D01*
X93068095Y-87266247D02*
X93068095Y-87123390D01*
X93068095Y-87123390D02*
X93115714Y-86932914D01*
X93115714Y-86932914D02*
X93163333Y-86837676D01*
X93163333Y-86837676D02*
X93258571Y-86742438D01*
X93258571Y-86742438D02*
X93401428Y-86694819D01*
X93401428Y-86694819D02*
X93496666Y-86694819D01*
X93496666Y-86694819D02*
X93639523Y-86742438D01*
X93639523Y-86742438D02*
X93687142Y-86790057D01*
X94639523Y-87694819D02*
X94068095Y-87694819D01*
X94353809Y-87694819D02*
X94353809Y-86694819D01*
X94353809Y-86694819D02*
X94258571Y-86837676D01*
X94258571Y-86837676D02*
X94163333Y-86932914D01*
X94163333Y-86932914D02*
X94068095Y-86980533D01*
X94972857Y-86694819D02*
X95591904Y-86694819D01*
X95591904Y-86694819D02*
X95258571Y-87075771D01*
X95258571Y-87075771D02*
X95401428Y-87075771D01*
X95401428Y-87075771D02*
X95496666Y-87123390D01*
X95496666Y-87123390D02*
X95544285Y-87171009D01*
X95544285Y-87171009D02*
X95591904Y-87266247D01*
X95591904Y-87266247D02*
X95591904Y-87504342D01*
X95591904Y-87504342D02*
X95544285Y-87599580D01*
X95544285Y-87599580D02*
X95496666Y-87647200D01*
X95496666Y-87647200D02*
X95401428Y-87694819D01*
X95401428Y-87694819D02*
X95115714Y-87694819D01*
X95115714Y-87694819D02*
X95020476Y-87647200D01*
X95020476Y-87647200D02*
X94972857Y-87599580D01*
X158666666Y-117454819D02*
X158666666Y-118169104D01*
X158666666Y-118169104D02*
X158619047Y-118311961D01*
X158619047Y-118311961D02*
X158523809Y-118407200D01*
X158523809Y-118407200D02*
X158380952Y-118454819D01*
X158380952Y-118454819D02*
X158285714Y-118454819D01*
X159571428Y-117788152D02*
X159571428Y-118454819D01*
X159333333Y-117407200D02*
X159095238Y-118121485D01*
X159095238Y-118121485D02*
X159714285Y-118121485D01*
X125846087Y-150679580D02*
X125798468Y-150727200D01*
X125798468Y-150727200D02*
X125655611Y-150774819D01*
X125655611Y-150774819D02*
X125560373Y-150774819D01*
X125560373Y-150774819D02*
X125417516Y-150727200D01*
X125417516Y-150727200D02*
X125322278Y-150631961D01*
X125322278Y-150631961D02*
X125274659Y-150536723D01*
X125274659Y-150536723D02*
X125227040Y-150346247D01*
X125227040Y-150346247D02*
X125227040Y-150203390D01*
X125227040Y-150203390D02*
X125274659Y-150012914D01*
X125274659Y-150012914D02*
X125322278Y-149917676D01*
X125322278Y-149917676D02*
X125417516Y-149822438D01*
X125417516Y-149822438D02*
X125560373Y-149774819D01*
X125560373Y-149774819D02*
X125655611Y-149774819D01*
X125655611Y-149774819D02*
X125798468Y-149822438D01*
X125798468Y-149822438D02*
X125846087Y-149870057D01*
X126179421Y-149774819D02*
X126798468Y-149774819D01*
X126798468Y-149774819D02*
X126465135Y-150155771D01*
X126465135Y-150155771D02*
X126607992Y-150155771D01*
X126607992Y-150155771D02*
X126703230Y-150203390D01*
X126703230Y-150203390D02*
X126750849Y-150251009D01*
X126750849Y-150251009D02*
X126798468Y-150346247D01*
X126798468Y-150346247D02*
X126798468Y-150584342D01*
X126798468Y-150584342D02*
X126750849Y-150679580D01*
X126750849Y-150679580D02*
X126703230Y-150727200D01*
X126703230Y-150727200D02*
X126607992Y-150774819D01*
X126607992Y-150774819D02*
X126322278Y-150774819D01*
X126322278Y-150774819D02*
X126227040Y-150727200D01*
X126227040Y-150727200D02*
X126179421Y-150679580D01*
X112296087Y-150179580D02*
X112248468Y-150227200D01*
X112248468Y-150227200D02*
X112105611Y-150274819D01*
X112105611Y-150274819D02*
X112010373Y-150274819D01*
X112010373Y-150274819D02*
X111867516Y-150227200D01*
X111867516Y-150227200D02*
X111772278Y-150131961D01*
X111772278Y-150131961D02*
X111724659Y-150036723D01*
X111724659Y-150036723D02*
X111677040Y-149846247D01*
X111677040Y-149846247D02*
X111677040Y-149703390D01*
X111677040Y-149703390D02*
X111724659Y-149512914D01*
X111724659Y-149512914D02*
X111772278Y-149417676D01*
X111772278Y-149417676D02*
X111867516Y-149322438D01*
X111867516Y-149322438D02*
X112010373Y-149274819D01*
X112010373Y-149274819D02*
X112105611Y-149274819D01*
X112105611Y-149274819D02*
X112248468Y-149322438D01*
X112248468Y-149322438D02*
X112296087Y-149370057D01*
X112677040Y-149370057D02*
X112724659Y-149322438D01*
X112724659Y-149322438D02*
X112819897Y-149274819D01*
X112819897Y-149274819D02*
X113057992Y-149274819D01*
X113057992Y-149274819D02*
X113153230Y-149322438D01*
X113153230Y-149322438D02*
X113200849Y-149370057D01*
X113200849Y-149370057D02*
X113248468Y-149465295D01*
X113248468Y-149465295D02*
X113248468Y-149560533D01*
X113248468Y-149560533D02*
X113200849Y-149703390D01*
X113200849Y-149703390D02*
X112629421Y-150274819D01*
X112629421Y-150274819D02*
X113248468Y-150274819D01*
X161304819Y-144079166D02*
X160828628Y-144412499D01*
X161304819Y-144650594D02*
X160304819Y-144650594D01*
X160304819Y-144650594D02*
X160304819Y-144269642D01*
X160304819Y-144269642D02*
X160352438Y-144174404D01*
X160352438Y-144174404D02*
X160400057Y-144126785D01*
X160400057Y-144126785D02*
X160495295Y-144079166D01*
X160495295Y-144079166D02*
X160638152Y-144079166D01*
X160638152Y-144079166D02*
X160733390Y-144126785D01*
X160733390Y-144126785D02*
X160781009Y-144174404D01*
X160781009Y-144174404D02*
X160828628Y-144269642D01*
X160828628Y-144269642D02*
X160828628Y-144650594D01*
X160304819Y-143745832D02*
X160304819Y-143126785D01*
X160304819Y-143126785D02*
X160685771Y-143460118D01*
X160685771Y-143460118D02*
X160685771Y-143317261D01*
X160685771Y-143317261D02*
X160733390Y-143222023D01*
X160733390Y-143222023D02*
X160781009Y-143174404D01*
X160781009Y-143174404D02*
X160876247Y-143126785D01*
X160876247Y-143126785D02*
X161114342Y-143126785D01*
X161114342Y-143126785D02*
X161209580Y-143174404D01*
X161209580Y-143174404D02*
X161257200Y-143222023D01*
X161257200Y-143222023D02*
X161304819Y-143317261D01*
X161304819Y-143317261D02*
X161304819Y-143602975D01*
X161304819Y-143602975D02*
X161257200Y-143698213D01*
X161257200Y-143698213D02*
X161209580Y-143745832D01*
X78787142Y-91099580D02*
X78739523Y-91147200D01*
X78739523Y-91147200D02*
X78596666Y-91194819D01*
X78596666Y-91194819D02*
X78501428Y-91194819D01*
X78501428Y-91194819D02*
X78358571Y-91147200D01*
X78358571Y-91147200D02*
X78263333Y-91051961D01*
X78263333Y-91051961D02*
X78215714Y-90956723D01*
X78215714Y-90956723D02*
X78168095Y-90766247D01*
X78168095Y-90766247D02*
X78168095Y-90623390D01*
X78168095Y-90623390D02*
X78215714Y-90432914D01*
X78215714Y-90432914D02*
X78263333Y-90337676D01*
X78263333Y-90337676D02*
X78358571Y-90242438D01*
X78358571Y-90242438D02*
X78501428Y-90194819D01*
X78501428Y-90194819D02*
X78596666Y-90194819D01*
X78596666Y-90194819D02*
X78739523Y-90242438D01*
X78739523Y-90242438D02*
X78787142Y-90290057D01*
X79739523Y-91194819D02*
X79168095Y-91194819D01*
X79453809Y-91194819D02*
X79453809Y-90194819D01*
X79453809Y-90194819D02*
X79358571Y-90337676D01*
X79358571Y-90337676D02*
X79263333Y-90432914D01*
X79263333Y-90432914D02*
X79168095Y-90480533D01*
X80691904Y-91194819D02*
X80120476Y-91194819D01*
X80406190Y-91194819D02*
X80406190Y-90194819D01*
X80406190Y-90194819D02*
X80310952Y-90337676D01*
X80310952Y-90337676D02*
X80215714Y-90432914D01*
X80215714Y-90432914D02*
X80120476Y-90480533D01*
X102083333Y-139109580D02*
X102035714Y-139157200D01*
X102035714Y-139157200D02*
X101892857Y-139204819D01*
X101892857Y-139204819D02*
X101797619Y-139204819D01*
X101797619Y-139204819D02*
X101654762Y-139157200D01*
X101654762Y-139157200D02*
X101559524Y-139061961D01*
X101559524Y-139061961D02*
X101511905Y-138966723D01*
X101511905Y-138966723D02*
X101464286Y-138776247D01*
X101464286Y-138776247D02*
X101464286Y-138633390D01*
X101464286Y-138633390D02*
X101511905Y-138442914D01*
X101511905Y-138442914D02*
X101559524Y-138347676D01*
X101559524Y-138347676D02*
X101654762Y-138252438D01*
X101654762Y-138252438D02*
X101797619Y-138204819D01*
X101797619Y-138204819D02*
X101892857Y-138204819D01*
X101892857Y-138204819D02*
X102035714Y-138252438D01*
X102035714Y-138252438D02*
X102083333Y-138300057D01*
X103035714Y-139204819D02*
X102464286Y-139204819D01*
X102750000Y-139204819D02*
X102750000Y-138204819D01*
X102750000Y-138204819D02*
X102654762Y-138347676D01*
X102654762Y-138347676D02*
X102559524Y-138442914D01*
X102559524Y-138442914D02*
X102464286Y-138490533D01*
X92807142Y-95539580D02*
X92759523Y-95587200D01*
X92759523Y-95587200D02*
X92616666Y-95634819D01*
X92616666Y-95634819D02*
X92521428Y-95634819D01*
X92521428Y-95634819D02*
X92378571Y-95587200D01*
X92378571Y-95587200D02*
X92283333Y-95491961D01*
X92283333Y-95491961D02*
X92235714Y-95396723D01*
X92235714Y-95396723D02*
X92188095Y-95206247D01*
X92188095Y-95206247D02*
X92188095Y-95063390D01*
X92188095Y-95063390D02*
X92235714Y-94872914D01*
X92235714Y-94872914D02*
X92283333Y-94777676D01*
X92283333Y-94777676D02*
X92378571Y-94682438D01*
X92378571Y-94682438D02*
X92521428Y-94634819D01*
X92521428Y-94634819D02*
X92616666Y-94634819D01*
X92616666Y-94634819D02*
X92759523Y-94682438D01*
X92759523Y-94682438D02*
X92807142Y-94730057D01*
X93759523Y-95634819D02*
X93188095Y-95634819D01*
X93473809Y-95634819D02*
X93473809Y-94634819D01*
X93473809Y-94634819D02*
X93378571Y-94777676D01*
X93378571Y-94777676D02*
X93283333Y-94872914D01*
X93283333Y-94872914D02*
X93188095Y-94920533D01*
X94140476Y-94730057D02*
X94188095Y-94682438D01*
X94188095Y-94682438D02*
X94283333Y-94634819D01*
X94283333Y-94634819D02*
X94521428Y-94634819D01*
X94521428Y-94634819D02*
X94616666Y-94682438D01*
X94616666Y-94682438D02*
X94664285Y-94730057D01*
X94664285Y-94730057D02*
X94711904Y-94825295D01*
X94711904Y-94825295D02*
X94711904Y-94920533D01*
X94711904Y-94920533D02*
X94664285Y-95063390D01*
X94664285Y-95063390D02*
X94092857Y-95634819D01*
X94092857Y-95634819D02*
X94711904Y-95634819D01*
X98687142Y-87599580D02*
X98639523Y-87647200D01*
X98639523Y-87647200D02*
X98496666Y-87694819D01*
X98496666Y-87694819D02*
X98401428Y-87694819D01*
X98401428Y-87694819D02*
X98258571Y-87647200D01*
X98258571Y-87647200D02*
X98163333Y-87551961D01*
X98163333Y-87551961D02*
X98115714Y-87456723D01*
X98115714Y-87456723D02*
X98068095Y-87266247D01*
X98068095Y-87266247D02*
X98068095Y-87123390D01*
X98068095Y-87123390D02*
X98115714Y-86932914D01*
X98115714Y-86932914D02*
X98163333Y-86837676D01*
X98163333Y-86837676D02*
X98258571Y-86742438D01*
X98258571Y-86742438D02*
X98401428Y-86694819D01*
X98401428Y-86694819D02*
X98496666Y-86694819D01*
X98496666Y-86694819D02*
X98639523Y-86742438D01*
X98639523Y-86742438D02*
X98687142Y-86790057D01*
X99639523Y-87694819D02*
X99068095Y-87694819D01*
X99353809Y-87694819D02*
X99353809Y-86694819D01*
X99353809Y-86694819D02*
X99258571Y-86837676D01*
X99258571Y-86837676D02*
X99163333Y-86932914D01*
X99163333Y-86932914D02*
X99068095Y-86980533D01*
X100496666Y-87028152D02*
X100496666Y-87694819D01*
X100258571Y-86647200D02*
X100020476Y-87361485D01*
X100020476Y-87361485D02*
X100639523Y-87361485D01*
X159407142Y-155859580D02*
X159359523Y-155907200D01*
X159359523Y-155907200D02*
X159216666Y-155954819D01*
X159216666Y-155954819D02*
X159121428Y-155954819D01*
X159121428Y-155954819D02*
X158978571Y-155907200D01*
X158978571Y-155907200D02*
X158883333Y-155811961D01*
X158883333Y-155811961D02*
X158835714Y-155716723D01*
X158835714Y-155716723D02*
X158788095Y-155526247D01*
X158788095Y-155526247D02*
X158788095Y-155383390D01*
X158788095Y-155383390D02*
X158835714Y-155192914D01*
X158835714Y-155192914D02*
X158883333Y-155097676D01*
X158883333Y-155097676D02*
X158978571Y-155002438D01*
X158978571Y-155002438D02*
X159121428Y-154954819D01*
X159121428Y-154954819D02*
X159216666Y-154954819D01*
X159216666Y-154954819D02*
X159359523Y-155002438D01*
X159359523Y-155002438D02*
X159407142Y-155050057D01*
X160359523Y-155954819D02*
X159788095Y-155954819D01*
X160073809Y-155954819D02*
X160073809Y-154954819D01*
X160073809Y-154954819D02*
X159978571Y-155097676D01*
X159978571Y-155097676D02*
X159883333Y-155192914D01*
X159883333Y-155192914D02*
X159788095Y-155240533D01*
X161216666Y-154954819D02*
X161026190Y-154954819D01*
X161026190Y-154954819D02*
X160930952Y-155002438D01*
X160930952Y-155002438D02*
X160883333Y-155050057D01*
X160883333Y-155050057D02*
X160788095Y-155192914D01*
X160788095Y-155192914D02*
X160740476Y-155383390D01*
X160740476Y-155383390D02*
X160740476Y-155764342D01*
X160740476Y-155764342D02*
X160788095Y-155859580D01*
X160788095Y-155859580D02*
X160835714Y-155907200D01*
X160835714Y-155907200D02*
X160930952Y-155954819D01*
X160930952Y-155954819D02*
X161121428Y-155954819D01*
X161121428Y-155954819D02*
X161216666Y-155907200D01*
X161216666Y-155907200D02*
X161264285Y-155859580D01*
X161264285Y-155859580D02*
X161311904Y-155764342D01*
X161311904Y-155764342D02*
X161311904Y-155526247D01*
X161311904Y-155526247D02*
X161264285Y-155431009D01*
X161264285Y-155431009D02*
X161216666Y-155383390D01*
X161216666Y-155383390D02*
X161121428Y-155335771D01*
X161121428Y-155335771D02*
X160930952Y-155335771D01*
X160930952Y-155335771D02*
X160835714Y-155383390D01*
X160835714Y-155383390D02*
X160788095Y-155431009D01*
X160788095Y-155431009D02*
X160740476Y-155526247D01*
X101944761Y-64294819D02*
X101611428Y-63818628D01*
X101373333Y-64294819D02*
X101373333Y-63294819D01*
X101373333Y-63294819D02*
X101754285Y-63294819D01*
X101754285Y-63294819D02*
X101849523Y-63342438D01*
X101849523Y-63342438D02*
X101897142Y-63390057D01*
X101897142Y-63390057D02*
X101944761Y-63485295D01*
X101944761Y-63485295D02*
X101944761Y-63628152D01*
X101944761Y-63628152D02*
X101897142Y-63723390D01*
X101897142Y-63723390D02*
X101849523Y-63771009D01*
X101849523Y-63771009D02*
X101754285Y-63818628D01*
X101754285Y-63818628D02*
X101373333Y-63818628D01*
X102230476Y-63294819D02*
X102563809Y-64294819D01*
X102563809Y-64294819D02*
X102897142Y-63294819D01*
X103135238Y-63294819D02*
X103754285Y-63294819D01*
X103754285Y-63294819D02*
X103420952Y-63675771D01*
X103420952Y-63675771D02*
X103563809Y-63675771D01*
X103563809Y-63675771D02*
X103659047Y-63723390D01*
X103659047Y-63723390D02*
X103706666Y-63771009D01*
X103706666Y-63771009D02*
X103754285Y-63866247D01*
X103754285Y-63866247D02*
X103754285Y-64104342D01*
X103754285Y-64104342D02*
X103706666Y-64199580D01*
X103706666Y-64199580D02*
X103659047Y-64247200D01*
X103659047Y-64247200D02*
X103563809Y-64294819D01*
X103563809Y-64294819D02*
X103278095Y-64294819D01*
X103278095Y-64294819D02*
X103182857Y-64247200D01*
X103182857Y-64247200D02*
X103135238Y-64199580D01*
X129333333Y-142304819D02*
X129000000Y-141828628D01*
X128761905Y-142304819D02*
X128761905Y-141304819D01*
X128761905Y-141304819D02*
X129142857Y-141304819D01*
X129142857Y-141304819D02*
X129238095Y-141352438D01*
X129238095Y-141352438D02*
X129285714Y-141400057D01*
X129285714Y-141400057D02*
X129333333Y-141495295D01*
X129333333Y-141495295D02*
X129333333Y-141638152D01*
X129333333Y-141638152D02*
X129285714Y-141733390D01*
X129285714Y-141733390D02*
X129238095Y-141781009D01*
X129238095Y-141781009D02*
X129142857Y-141828628D01*
X129142857Y-141828628D02*
X128761905Y-141828628D01*
X130285714Y-142304819D02*
X129714286Y-142304819D01*
X130000000Y-142304819D02*
X130000000Y-141304819D01*
X130000000Y-141304819D02*
X129904762Y-141447676D01*
X129904762Y-141447676D02*
X129809524Y-141542914D01*
X129809524Y-141542914D02*
X129714286Y-141590533D01*
X106139421Y-117002200D02*
X106282278Y-117049819D01*
X106282278Y-117049819D02*
X106520373Y-117049819D01*
X106520373Y-117049819D02*
X106615611Y-117002200D01*
X106615611Y-117002200D02*
X106663230Y-116954580D01*
X106663230Y-116954580D02*
X106710849Y-116859342D01*
X106710849Y-116859342D02*
X106710849Y-116764104D01*
X106710849Y-116764104D02*
X106663230Y-116668866D01*
X106663230Y-116668866D02*
X106615611Y-116621247D01*
X106615611Y-116621247D02*
X106520373Y-116573628D01*
X106520373Y-116573628D02*
X106329897Y-116526009D01*
X106329897Y-116526009D02*
X106234659Y-116478390D01*
X106234659Y-116478390D02*
X106187040Y-116430771D01*
X106187040Y-116430771D02*
X106139421Y-116335533D01*
X106139421Y-116335533D02*
X106139421Y-116240295D01*
X106139421Y-116240295D02*
X106187040Y-116145057D01*
X106187040Y-116145057D02*
X106234659Y-116097438D01*
X106234659Y-116097438D02*
X106329897Y-116049819D01*
X106329897Y-116049819D02*
X106567992Y-116049819D01*
X106567992Y-116049819D02*
X106710849Y-116097438D01*
X107044183Y-116049819D02*
X107282278Y-117049819D01*
X107282278Y-117049819D02*
X107472754Y-116335533D01*
X107472754Y-116335533D02*
X107663230Y-117049819D01*
X107663230Y-117049819D02*
X107901326Y-116049819D01*
X108234659Y-116145057D02*
X108282278Y-116097438D01*
X108282278Y-116097438D02*
X108377516Y-116049819D01*
X108377516Y-116049819D02*
X108615611Y-116049819D01*
X108615611Y-116049819D02*
X108710849Y-116097438D01*
X108710849Y-116097438D02*
X108758468Y-116145057D01*
X108758468Y-116145057D02*
X108806087Y-116240295D01*
X108806087Y-116240295D02*
X108806087Y-116335533D01*
X108806087Y-116335533D02*
X108758468Y-116478390D01*
X108758468Y-116478390D02*
X108187040Y-117049819D01*
X108187040Y-117049819D02*
X108806087Y-117049819D01*
X93663333Y-69099580D02*
X93615714Y-69147200D01*
X93615714Y-69147200D02*
X93472857Y-69194819D01*
X93472857Y-69194819D02*
X93377619Y-69194819D01*
X93377619Y-69194819D02*
X93234762Y-69147200D01*
X93234762Y-69147200D02*
X93139524Y-69051961D01*
X93139524Y-69051961D02*
X93091905Y-68956723D01*
X93091905Y-68956723D02*
X93044286Y-68766247D01*
X93044286Y-68766247D02*
X93044286Y-68623390D01*
X93044286Y-68623390D02*
X93091905Y-68432914D01*
X93091905Y-68432914D02*
X93139524Y-68337676D01*
X93139524Y-68337676D02*
X93234762Y-68242438D01*
X93234762Y-68242438D02*
X93377619Y-68194819D01*
X93377619Y-68194819D02*
X93472857Y-68194819D01*
X93472857Y-68194819D02*
X93615714Y-68242438D01*
X93615714Y-68242438D02*
X93663333Y-68290057D01*
X94139524Y-69194819D02*
X94330000Y-69194819D01*
X94330000Y-69194819D02*
X94425238Y-69147200D01*
X94425238Y-69147200D02*
X94472857Y-69099580D01*
X94472857Y-69099580D02*
X94568095Y-68956723D01*
X94568095Y-68956723D02*
X94615714Y-68766247D01*
X94615714Y-68766247D02*
X94615714Y-68385295D01*
X94615714Y-68385295D02*
X94568095Y-68290057D01*
X94568095Y-68290057D02*
X94520476Y-68242438D01*
X94520476Y-68242438D02*
X94425238Y-68194819D01*
X94425238Y-68194819D02*
X94234762Y-68194819D01*
X94234762Y-68194819D02*
X94139524Y-68242438D01*
X94139524Y-68242438D02*
X94091905Y-68290057D01*
X94091905Y-68290057D02*
X94044286Y-68385295D01*
X94044286Y-68385295D02*
X94044286Y-68623390D01*
X94044286Y-68623390D02*
X94091905Y-68718628D01*
X94091905Y-68718628D02*
X94139524Y-68766247D01*
X94139524Y-68766247D02*
X94234762Y-68813866D01*
X94234762Y-68813866D02*
X94425238Y-68813866D01*
X94425238Y-68813866D02*
X94520476Y-68766247D01*
X94520476Y-68766247D02*
X94568095Y-68718628D01*
X94568095Y-68718628D02*
X94615714Y-68623390D01*
X161304819Y-149579166D02*
X160828628Y-149912499D01*
X161304819Y-150150594D02*
X160304819Y-150150594D01*
X160304819Y-150150594D02*
X160304819Y-149769642D01*
X160304819Y-149769642D02*
X160352438Y-149674404D01*
X160352438Y-149674404D02*
X160400057Y-149626785D01*
X160400057Y-149626785D02*
X160495295Y-149579166D01*
X160495295Y-149579166D02*
X160638152Y-149579166D01*
X160638152Y-149579166D02*
X160733390Y-149626785D01*
X160733390Y-149626785D02*
X160781009Y-149674404D01*
X160781009Y-149674404D02*
X160828628Y-149769642D01*
X160828628Y-149769642D02*
X160828628Y-150150594D01*
X160638152Y-148722023D02*
X161304819Y-148722023D01*
X160257200Y-148960118D02*
X160971485Y-149198213D01*
X160971485Y-149198213D02*
X160971485Y-148579166D01*
X93187142Y-101359580D02*
X93139523Y-101407200D01*
X93139523Y-101407200D02*
X92996666Y-101454819D01*
X92996666Y-101454819D02*
X92901428Y-101454819D01*
X92901428Y-101454819D02*
X92758571Y-101407200D01*
X92758571Y-101407200D02*
X92663333Y-101311961D01*
X92663333Y-101311961D02*
X92615714Y-101216723D01*
X92615714Y-101216723D02*
X92568095Y-101026247D01*
X92568095Y-101026247D02*
X92568095Y-100883390D01*
X92568095Y-100883390D02*
X92615714Y-100692914D01*
X92615714Y-100692914D02*
X92663333Y-100597676D01*
X92663333Y-100597676D02*
X92758571Y-100502438D01*
X92758571Y-100502438D02*
X92901428Y-100454819D01*
X92901428Y-100454819D02*
X92996666Y-100454819D01*
X92996666Y-100454819D02*
X93139523Y-100502438D01*
X93139523Y-100502438D02*
X93187142Y-100550057D01*
X94139523Y-101454819D02*
X93568095Y-101454819D01*
X93853809Y-101454819D02*
X93853809Y-100454819D01*
X93853809Y-100454819D02*
X93758571Y-100597676D01*
X93758571Y-100597676D02*
X93663333Y-100692914D01*
X93663333Y-100692914D02*
X93568095Y-100740533D01*
X94758571Y-100454819D02*
X94853809Y-100454819D01*
X94853809Y-100454819D02*
X94949047Y-100502438D01*
X94949047Y-100502438D02*
X94996666Y-100550057D01*
X94996666Y-100550057D02*
X95044285Y-100645295D01*
X95044285Y-100645295D02*
X95091904Y-100835771D01*
X95091904Y-100835771D02*
X95091904Y-101073866D01*
X95091904Y-101073866D02*
X95044285Y-101264342D01*
X95044285Y-101264342D02*
X94996666Y-101359580D01*
X94996666Y-101359580D02*
X94949047Y-101407200D01*
X94949047Y-101407200D02*
X94853809Y-101454819D01*
X94853809Y-101454819D02*
X94758571Y-101454819D01*
X94758571Y-101454819D02*
X94663333Y-101407200D01*
X94663333Y-101407200D02*
X94615714Y-101359580D01*
X94615714Y-101359580D02*
X94568095Y-101264342D01*
X94568095Y-101264342D02*
X94520476Y-101073866D01*
X94520476Y-101073866D02*
X94520476Y-100835771D01*
X94520476Y-100835771D02*
X94568095Y-100645295D01*
X94568095Y-100645295D02*
X94615714Y-100550057D01*
X94615714Y-100550057D02*
X94663333Y-100502438D01*
X94663333Y-100502438D02*
X94758571Y-100454819D01*
X85928095Y-74464819D02*
X85928095Y-75274342D01*
X85928095Y-75274342D02*
X85975714Y-75369580D01*
X85975714Y-75369580D02*
X86023333Y-75417200D01*
X86023333Y-75417200D02*
X86118571Y-75464819D01*
X86118571Y-75464819D02*
X86309047Y-75464819D01*
X86309047Y-75464819D02*
X86404285Y-75417200D01*
X86404285Y-75417200D02*
X86451904Y-75369580D01*
X86451904Y-75369580D02*
X86499523Y-75274342D01*
X86499523Y-75274342D02*
X86499523Y-74464819D01*
X87404285Y-74464819D02*
X87213809Y-74464819D01*
X87213809Y-74464819D02*
X87118571Y-74512438D01*
X87118571Y-74512438D02*
X87070952Y-74560057D01*
X87070952Y-74560057D02*
X86975714Y-74702914D01*
X86975714Y-74702914D02*
X86928095Y-74893390D01*
X86928095Y-74893390D02*
X86928095Y-75274342D01*
X86928095Y-75274342D02*
X86975714Y-75369580D01*
X86975714Y-75369580D02*
X87023333Y-75417200D01*
X87023333Y-75417200D02*
X87118571Y-75464819D01*
X87118571Y-75464819D02*
X87309047Y-75464819D01*
X87309047Y-75464819D02*
X87404285Y-75417200D01*
X87404285Y-75417200D02*
X87451904Y-75369580D01*
X87451904Y-75369580D02*
X87499523Y-75274342D01*
X87499523Y-75274342D02*
X87499523Y-75036247D01*
X87499523Y-75036247D02*
X87451904Y-74941009D01*
X87451904Y-74941009D02*
X87404285Y-74893390D01*
X87404285Y-74893390D02*
X87309047Y-74845771D01*
X87309047Y-74845771D02*
X87118571Y-74845771D01*
X87118571Y-74845771D02*
X87023333Y-74893390D01*
X87023333Y-74893390D02*
X86975714Y-74941009D01*
X86975714Y-74941009D02*
X86928095Y-75036247D01*
X79734659Y-147754819D02*
X79734659Y-146754819D01*
X79734659Y-146754819D02*
X79972754Y-146754819D01*
X79972754Y-146754819D02*
X80115611Y-146802438D01*
X80115611Y-146802438D02*
X80210849Y-146897676D01*
X80210849Y-146897676D02*
X80258468Y-146992914D01*
X80258468Y-146992914D02*
X80306087Y-147183390D01*
X80306087Y-147183390D02*
X80306087Y-147326247D01*
X80306087Y-147326247D02*
X80258468Y-147516723D01*
X80258468Y-147516723D02*
X80210849Y-147611961D01*
X80210849Y-147611961D02*
X80115611Y-147707200D01*
X80115611Y-147707200D02*
X79972754Y-147754819D01*
X79972754Y-147754819D02*
X79734659Y-147754819D01*
X81258468Y-147754819D02*
X80687040Y-147754819D01*
X80972754Y-147754819D02*
X80972754Y-146754819D01*
X80972754Y-146754819D02*
X80877516Y-146897676D01*
X80877516Y-146897676D02*
X80782278Y-146992914D01*
X80782278Y-146992914D02*
X80687040Y-147040533D01*
D11*
%TO.C,R11*%
X99860436Y-94315000D02*
X100314564Y-94315000D01*
X99860436Y-95785000D02*
X100314564Y-95785000D01*
%TO.C,C4*%
X137301502Y-155265000D02*
X137824006Y-155265000D01*
X137301502Y-156735000D02*
X137824006Y-156735000D01*
%TO.C,DS1*%
X109760000Y-74860000D02*
X109760000Y-111140000D01*
X109760000Y-111140000D02*
X190040000Y-111140000D01*
X109770000Y-74860000D02*
X110560000Y-74860000D01*
X112900000Y-80500000D02*
X185900000Y-80500000D01*
X112900000Y-105500000D02*
X112900000Y-80500000D01*
X116400000Y-74500000D02*
X119400000Y-74500000D01*
X117600280Y-99999320D02*
X117600280Y-86000000D01*
X118100000Y-85500000D02*
X181600000Y-85500000D01*
X181600660Y-100500000D02*
X118100000Y-100500000D01*
X182100000Y-86000000D02*
X182100000Y-100000000D01*
X185900000Y-80500000D02*
X185900000Y-105500000D01*
X185900000Y-105500000D02*
X112900000Y-105500000D01*
X190040000Y-74860000D02*
X110560000Y-74860000D01*
X190040000Y-111140000D02*
X190040000Y-74860000D01*
X117600280Y-85998840D02*
G75*
G02*
X118100660Y-85498460I500380J0D01*
G01*
X118100660Y-100499700D02*
G75*
G02*
X117600280Y-99999320I0J500380D01*
G01*
X181600000Y-85500000D02*
G75*
G02*
X182100000Y-86000000I0J-500000D01*
G01*
X182101040Y-99999320D02*
G75*
G02*
X181600660Y-100499640I-500340J20D01*
G01*
%TO.C,C8*%
X78568748Y-69685000D02*
X79091252Y-69685000D01*
X78568748Y-71155000D02*
X79091252Y-71155000D01*
%TO.C,R12*%
X99860436Y-97265000D02*
X100314564Y-97265000D01*
X99860436Y-98735000D02*
X100314564Y-98735000D01*
%TO.C,J1*%
X50512754Y-142500000D02*
G75*
G02*
X39512754Y-142500000I-5500000J0D01*
G01*
X39512754Y-142500000D02*
G75*
G02*
X50512754Y-142500000I5500000J0D01*
G01*
%TO.C,TP1*%
X147000000Y-135500000D02*
G75*
G02*
X144000000Y-135500000I-1500000J0D01*
G01*
X144000000Y-135500000D02*
G75*
G02*
X147000000Y-135500000I1500000J0D01*
G01*
%TO.C,J3*%
X151512754Y-124000000D02*
G75*
G02*
X140512754Y-124000000I-5500000J0D01*
G01*
X140512754Y-124000000D02*
G75*
G02*
X151512754Y-124000000I5500000J0D01*
G01*
%TO.C,RV2*%
X118292754Y-126620000D02*
X118292754Y-120380000D01*
X125692754Y-120380000D02*
X118292754Y-120380000D01*
X125692754Y-126620000D02*
X118292754Y-126620000D01*
X125692754Y-126870000D02*
X125692754Y-120130000D01*
X126492754Y-120130000D02*
X125692754Y-120130000D01*
X126492754Y-126870000D02*
X125692754Y-126870000D01*
X126492754Y-128521000D02*
X126492754Y-118480000D01*
X127262754Y-118480000D02*
X126492754Y-118480000D01*
X127262754Y-128521000D02*
X126492754Y-128521000D01*
X128762754Y-118480000D02*
X131012754Y-118480000D01*
X131012754Y-128521000D02*
X128762754Y-128521000D01*
X133532754Y-125944000D02*
X133532754Y-121055000D01*
X127262754Y-118480000D02*
X128762754Y-118480000D01*
X128762754Y-119150000D01*
X127262754Y-119150000D01*
X127262754Y-118480000D01*
X127262754Y-127850000D02*
X128762754Y-127850000D01*
X128762754Y-128521000D01*
X127262754Y-128521000D01*
X127262754Y-127850000D01*
%TO.C,U3*%
X135552754Y-141670000D02*
X135552754Y-151950000D01*
X135552754Y-151950000D02*
X140852754Y-151950000D01*
X137202754Y-141670000D02*
X135552754Y-141670000D01*
X140852754Y-141670000D02*
X139202754Y-141670000D01*
X140852754Y-151950000D02*
X140852754Y-141670000D01*
X139202754Y-141670000D02*
G75*
G02*
X137202754Y-141670000I-1000000J0D01*
G01*
%TO.C,U1*%
X114362754Y-144240000D02*
X124582754Y-144240000D01*
X114362754Y-145620000D02*
X124582754Y-145620000D01*
X114362754Y-148860000D02*
X114362754Y-144240000D01*
X117622754Y-144240000D02*
X117622754Y-145620000D01*
X121322754Y-144240000D02*
X121322754Y-145620000D01*
X124582754Y-144240000D02*
X124582754Y-148860000D01*
X124582754Y-148860000D02*
X114362754Y-148860000D01*
%TO.C,R9*%
X78860436Y-85265000D02*
X79314564Y-85265000D01*
X78860436Y-86735000D02*
X79314564Y-86735000D01*
%TO.C,U4*%
X81430000Y-67740000D02*
X91650000Y-67740000D01*
X81430000Y-69120000D02*
X91650000Y-69120000D01*
X81430000Y-72360000D02*
X81430000Y-67740000D01*
X84690000Y-67740000D02*
X84690000Y-69120000D01*
X88390000Y-67740000D02*
X88390000Y-69120000D01*
X91650000Y-67740000D02*
X91650000Y-72360000D01*
X91650000Y-72360000D02*
X81430000Y-72360000D01*
%TO.C,RV1*%
X78292754Y-126145000D02*
X78292754Y-119905000D01*
X85692754Y-119905000D02*
X78292754Y-119905000D01*
X85692754Y-126145000D02*
X78292754Y-126145000D01*
X85692754Y-126395000D02*
X85692754Y-119655000D01*
X86492754Y-119655000D02*
X85692754Y-119655000D01*
X86492754Y-126395000D02*
X85692754Y-126395000D01*
X86492754Y-128046000D02*
X86492754Y-118005000D01*
X87262754Y-118005000D02*
X86492754Y-118005000D01*
X87262754Y-128046000D02*
X86492754Y-128046000D01*
X88762754Y-118005000D02*
X91012754Y-118005000D01*
X91012754Y-128046000D02*
X88762754Y-128046000D01*
X93532754Y-125469000D02*
X93532754Y-120580000D01*
X87262754Y-118005000D02*
X88762754Y-118005000D01*
X88762754Y-118675000D01*
X87262754Y-118675000D01*
X87262754Y-118005000D01*
X87262754Y-127375000D02*
X88762754Y-127375000D01*
X88762754Y-128046000D01*
X87262754Y-128046000D01*
X87262754Y-127375000D01*
%TO.C,R10*%
X144639564Y-71765000D02*
X144185436Y-71765000D01*
X144639564Y-73235000D02*
X144185436Y-73235000D01*
%TO.C,R6*%
X179698190Y-145765000D02*
X180152318Y-145765000D01*
X179698190Y-147235000D02*
X180152318Y-147235000D01*
%TO.C,U5*%
X169867754Y-142360000D02*
X169867754Y-152640000D01*
X169867754Y-152640000D02*
X175167754Y-152640000D01*
X171517754Y-142360000D02*
X169867754Y-142360000D01*
X175167754Y-142360000D02*
X173517754Y-142360000D01*
X175167754Y-152640000D02*
X175167754Y-142360000D01*
X173517754Y-142360000D02*
G75*
G02*
X171517754Y-142360000I-1000000J0D01*
G01*
%TO.C,C15*%
X169688748Y-138265000D02*
X170211252Y-138265000D01*
X169688748Y-139735000D02*
X170211252Y-139735000D01*
%TO.C,J2*%
X64012754Y-143000000D02*
G75*
G02*
X53012754Y-143000000I-5500000J0D01*
G01*
X53012754Y-143000000D02*
G75*
G02*
X64012754Y-143000000I5500000J0D01*
G01*
%TO.C,R7*%
X179698190Y-149265000D02*
X180152318Y-149265000D01*
X179698190Y-150735000D02*
X180152318Y-150735000D01*
%TO.C,TP2*%
X157500000Y-136000000D02*
G75*
G02*
X154500000Y-136000000I-1500000J0D01*
G01*
X154500000Y-136000000D02*
G75*
G02*
X157500000Y-136000000I1500000J0D01*
G01*
%TO.C,R2*%
X130198190Y-146265000D02*
X130652318Y-146265000D01*
X130198190Y-147735000D02*
X130652318Y-147735000D01*
%TO.C,C6*%
X101701502Y-133265000D02*
X102224006Y-133265000D01*
X101701502Y-134735000D02*
X102224006Y-134735000D01*
%TO.C,C7*%
X104695225Y-132025000D02*
X105195225Y-132025000D01*
X104945225Y-131775000D02*
X104945225Y-132275000D01*
X107500000Y-130920000D02*
X107500000Y-132460000D01*
X107500000Y-134540000D02*
X107500000Y-136080000D01*
X107540000Y-130920000D02*
X107540000Y-132460000D01*
X107540000Y-134540000D02*
X107540000Y-136080000D01*
X107580000Y-130921000D02*
X107580000Y-132460000D01*
X107580000Y-134540000D02*
X107580000Y-136079000D01*
X107620000Y-130923000D02*
X107620000Y-132460000D01*
X107620000Y-134540000D02*
X107620000Y-136077000D01*
X107660000Y-130925000D02*
X107660000Y-132460000D01*
X107660000Y-134540000D02*
X107660000Y-136075000D01*
X107700000Y-130928000D02*
X107700000Y-132460000D01*
X107700000Y-134540000D02*
X107700000Y-136072000D01*
X107740000Y-130931000D02*
X107740000Y-132460000D01*
X107740000Y-134540000D02*
X107740000Y-136069000D01*
X107780000Y-130935000D02*
X107780000Y-132460000D01*
X107780000Y-134540000D02*
X107780000Y-136065000D01*
X107820000Y-130940000D02*
X107820000Y-132460000D01*
X107820000Y-134540000D02*
X107820000Y-136060000D01*
X107860000Y-130945000D02*
X107860000Y-132460000D01*
X107860000Y-134540000D02*
X107860000Y-136055000D01*
X107900000Y-130951000D02*
X107900000Y-132460000D01*
X107900000Y-134540000D02*
X107900000Y-136049000D01*
X107940000Y-130957000D02*
X107940000Y-132460000D01*
X107940000Y-134540000D02*
X107940000Y-136043000D01*
X107980000Y-130964000D02*
X107980000Y-132460000D01*
X107980000Y-134540000D02*
X107980000Y-136036000D01*
X108020000Y-130972000D02*
X108020000Y-132460000D01*
X108020000Y-134540000D02*
X108020000Y-136028000D01*
X108060000Y-130981000D02*
X108060000Y-132460000D01*
X108060000Y-134540000D02*
X108060000Y-136019000D01*
X108100000Y-130990000D02*
X108100000Y-132460000D01*
X108100000Y-134540000D02*
X108100000Y-136010000D01*
X108140000Y-130999000D02*
X108140000Y-132460000D01*
X108140000Y-134540000D02*
X108140000Y-136001000D01*
X108180000Y-131010000D02*
X108180000Y-132460000D01*
X108180000Y-134540000D02*
X108180000Y-135990000D01*
X108220000Y-131021000D02*
X108220000Y-132460000D01*
X108220000Y-134540000D02*
X108220000Y-135979000D01*
X108260000Y-131033000D02*
X108260000Y-132460000D01*
X108260000Y-134540000D02*
X108260000Y-135967000D01*
X108300000Y-131045000D02*
X108300000Y-132460000D01*
X108300000Y-134540000D02*
X108300000Y-135955000D01*
X108340000Y-131058000D02*
X108340000Y-132460000D01*
X108340000Y-134540000D02*
X108340000Y-135942000D01*
X108380000Y-131072000D02*
X108380000Y-132460000D01*
X108380000Y-134540000D02*
X108380000Y-135928000D01*
X108420000Y-131087000D02*
X108420000Y-132460000D01*
X108420000Y-134540000D02*
X108420000Y-135913000D01*
X108460000Y-131102000D02*
X108460000Y-132460000D01*
X108460000Y-134540000D02*
X108460000Y-135898000D01*
X108500000Y-131118000D02*
X108500000Y-132460000D01*
X108500000Y-134540000D02*
X108500000Y-135882000D01*
X108540000Y-131135000D02*
X108540000Y-132460000D01*
X108540000Y-134540000D02*
X108540000Y-135865000D01*
X108580000Y-131153000D02*
X108580000Y-132460000D01*
X108580000Y-134540000D02*
X108580000Y-135847000D01*
X108620000Y-131171000D02*
X108620000Y-132460000D01*
X108620000Y-134540000D02*
X108620000Y-135829000D01*
X108660000Y-131191000D02*
X108660000Y-132460000D01*
X108660000Y-134540000D02*
X108660000Y-135809000D01*
X108700000Y-131211000D02*
X108700000Y-132460000D01*
X108700000Y-134540000D02*
X108700000Y-135789000D01*
X108740000Y-131232000D02*
X108740000Y-132460000D01*
X108740000Y-134540000D02*
X108740000Y-135768000D01*
X108780000Y-131254000D02*
X108780000Y-132460000D01*
X108780000Y-134540000D02*
X108780000Y-135746000D01*
X108820000Y-131277000D02*
X108820000Y-132460000D01*
X108820000Y-134540000D02*
X108820000Y-135723000D01*
X108860000Y-131301000D02*
X108860000Y-132460000D01*
X108860000Y-134540000D02*
X108860000Y-135699000D01*
X108900000Y-131325000D02*
X108900000Y-132460000D01*
X108900000Y-134540000D02*
X108900000Y-135675000D01*
X108940000Y-131351000D02*
X108940000Y-132460000D01*
X108940000Y-134540000D02*
X108940000Y-135649000D01*
X108980000Y-131378000D02*
X108980000Y-132460000D01*
X108980000Y-134540000D02*
X108980000Y-135622000D01*
X109020000Y-131406000D02*
X109020000Y-132460000D01*
X109020000Y-134540000D02*
X109020000Y-135594000D01*
X109060000Y-131435000D02*
X109060000Y-132460000D01*
X109060000Y-134540000D02*
X109060000Y-135565000D01*
X109100000Y-131465000D02*
X109100000Y-132460000D01*
X109100000Y-134540000D02*
X109100000Y-135535000D01*
X109140000Y-131497000D02*
X109140000Y-132460000D01*
X109140000Y-134540000D02*
X109140000Y-135503000D01*
X109180000Y-131530000D02*
X109180000Y-132460000D01*
X109180000Y-134540000D02*
X109180000Y-135470000D01*
X109220000Y-131564000D02*
X109220000Y-132460000D01*
X109220000Y-134540000D02*
X109220000Y-135436000D01*
X109260000Y-131599000D02*
X109260000Y-132460000D01*
X109260000Y-134540000D02*
X109260000Y-135401000D01*
X109300000Y-131636000D02*
X109300000Y-132460000D01*
X109300000Y-134540000D02*
X109300000Y-135364000D01*
X109340000Y-131675000D02*
X109340000Y-132460000D01*
X109340000Y-134540000D02*
X109340000Y-135325000D01*
X109380000Y-131715000D02*
X109380000Y-132460000D01*
X109380000Y-134540000D02*
X109380000Y-135285000D01*
X109420000Y-131757000D02*
X109420000Y-132460000D01*
X109420000Y-134540000D02*
X109420000Y-135243000D01*
X109460000Y-131801000D02*
X109460000Y-132460000D01*
X109460000Y-134540000D02*
X109460000Y-135199000D01*
X109500000Y-131848000D02*
X109500000Y-132460000D01*
X109500000Y-134540000D02*
X109500000Y-135152000D01*
X109540000Y-131896000D02*
X109540000Y-135104000D01*
X109580000Y-131947000D02*
X109580000Y-135053000D01*
X109620000Y-132001000D02*
X109620000Y-134999000D01*
X109660000Y-132057000D02*
X109660000Y-134943000D01*
X109700000Y-132117000D02*
X109700000Y-134883000D01*
X109740000Y-132181000D02*
X109740000Y-134819000D01*
X109780000Y-132249000D02*
X109780000Y-134751000D01*
X109820000Y-132323000D02*
X109820000Y-134677000D01*
X109860000Y-132402000D02*
X109860000Y-134598000D01*
X109900000Y-132489000D02*
X109900000Y-134511000D01*
X109940000Y-132586000D02*
X109940000Y-134414000D01*
X109980000Y-132695000D02*
X109980000Y-134305000D01*
X110020000Y-132823000D02*
X110020000Y-134177000D01*
X110060000Y-132983000D02*
X110060000Y-134017000D01*
X110100000Y-133217000D02*
X110100000Y-133783000D01*
X110120000Y-133500000D02*
G75*
G02*
X104880000Y-133500000I-2620000J0D01*
G01*
X104880000Y-133500000D02*
G75*
G02*
X110120000Y-133500000I2620000J0D01*
G01*
%TO.C,R8*%
X78860436Y-81765000D02*
X79314564Y-81765000D01*
X78860436Y-83235000D02*
X79314564Y-83235000D01*
%TO.C,C5*%
X110762513Y-132661000D02*
X111392513Y-132661000D01*
X111077513Y-132346000D02*
X111077513Y-132976000D01*
X114262754Y-131270000D02*
X114262754Y-137730000D01*
X114302754Y-131270000D02*
X114302754Y-137730000D01*
X114342754Y-131271000D02*
X114342754Y-137729000D01*
X114382754Y-131272000D02*
X114382754Y-137728000D01*
X114422754Y-131274000D02*
X114422754Y-137726000D01*
X114462754Y-131276000D02*
X114462754Y-137724000D01*
X114502754Y-131279000D02*
X114502754Y-133460000D01*
X114502754Y-135540000D02*
X114502754Y-137721000D01*
X114542754Y-131282000D02*
X114542754Y-133460000D01*
X114542754Y-135540000D02*
X114542754Y-137718000D01*
X114582754Y-131286000D02*
X114582754Y-133460000D01*
X114582754Y-135540000D02*
X114582754Y-137714000D01*
X114622754Y-131290000D02*
X114622754Y-133460000D01*
X114622754Y-135540000D02*
X114622754Y-137710000D01*
X114662754Y-131295000D02*
X114662754Y-133460000D01*
X114662754Y-135540000D02*
X114662754Y-137705000D01*
X114702754Y-131300000D02*
X114702754Y-133460000D01*
X114702754Y-135540000D02*
X114702754Y-137700000D01*
X114742754Y-131305000D02*
X114742754Y-133460000D01*
X114742754Y-135540000D02*
X114742754Y-137695000D01*
X114782754Y-131312000D02*
X114782754Y-133460000D01*
X114782754Y-135540000D02*
X114782754Y-137688000D01*
X114822754Y-131318000D02*
X114822754Y-133460000D01*
X114822754Y-135540000D02*
X114822754Y-137682000D01*
X114862754Y-131326000D02*
X114862754Y-133460000D01*
X114862754Y-135540000D02*
X114862754Y-137674000D01*
X114902754Y-131333000D02*
X114902754Y-133460000D01*
X114902754Y-135540000D02*
X114902754Y-137667000D01*
X114942754Y-131341000D02*
X114942754Y-133460000D01*
X114942754Y-135540000D02*
X114942754Y-137659000D01*
X114982754Y-131350000D02*
X114982754Y-133460000D01*
X114982754Y-135540000D02*
X114982754Y-137650000D01*
X115022754Y-131360000D02*
X115022754Y-133460000D01*
X115022754Y-135540000D02*
X115022754Y-137640000D01*
X115062754Y-131369000D02*
X115062754Y-133460000D01*
X115062754Y-135540000D02*
X115062754Y-137631000D01*
X115102754Y-131380000D02*
X115102754Y-133460000D01*
X115102754Y-135540000D02*
X115102754Y-137620000D01*
X115142754Y-131391000D02*
X115142754Y-133460000D01*
X115142754Y-135540000D02*
X115142754Y-137609000D01*
X115182754Y-131402000D02*
X115182754Y-133460000D01*
X115182754Y-135540000D02*
X115182754Y-137598000D01*
X115222754Y-131414000D02*
X115222754Y-133460000D01*
X115222754Y-135540000D02*
X115222754Y-137586000D01*
X115262754Y-131427000D02*
X115262754Y-133460000D01*
X115262754Y-135540000D02*
X115262754Y-137573000D01*
X115302754Y-131440000D02*
X115302754Y-133460000D01*
X115302754Y-135540000D02*
X115302754Y-137560000D01*
X115342754Y-131453000D02*
X115342754Y-133460000D01*
X115342754Y-135540000D02*
X115342754Y-137547000D01*
X115382754Y-131468000D02*
X115382754Y-133460000D01*
X115382754Y-135540000D02*
X115382754Y-137532000D01*
X115422754Y-131483000D02*
X115422754Y-133460000D01*
X115422754Y-135540000D02*
X115422754Y-137517000D01*
X115462754Y-131498000D02*
X115462754Y-133460000D01*
X115462754Y-135540000D02*
X115462754Y-137502000D01*
X115502754Y-131514000D02*
X115502754Y-133460000D01*
X115502754Y-135540000D02*
X115502754Y-137486000D01*
X115542754Y-131531000D02*
X115542754Y-133460000D01*
X115542754Y-135540000D02*
X115542754Y-137469000D01*
X115582754Y-131548000D02*
X115582754Y-133460000D01*
X115582754Y-135540000D02*
X115582754Y-137452000D01*
X115622754Y-131566000D02*
X115622754Y-133460000D01*
X115622754Y-135540000D02*
X115622754Y-137434000D01*
X115662754Y-131585000D02*
X115662754Y-133460000D01*
X115662754Y-135540000D02*
X115662754Y-137415000D01*
X115702754Y-131604000D02*
X115702754Y-133460000D01*
X115702754Y-135540000D02*
X115702754Y-137396000D01*
X115742754Y-131624000D02*
X115742754Y-133460000D01*
X115742754Y-135540000D02*
X115742754Y-137376000D01*
X115782754Y-131645000D02*
X115782754Y-133460000D01*
X115782754Y-135540000D02*
X115782754Y-137355000D01*
X115822754Y-131666000D02*
X115822754Y-133460000D01*
X115822754Y-135540000D02*
X115822754Y-137334000D01*
X115862754Y-131688000D02*
X115862754Y-133460000D01*
X115862754Y-135540000D02*
X115862754Y-137312000D01*
X115902754Y-131711000D02*
X115902754Y-133460000D01*
X115902754Y-135540000D02*
X115902754Y-137289000D01*
X115942754Y-131735000D02*
X115942754Y-133460000D01*
X115942754Y-135540000D02*
X115942754Y-137265000D01*
X115982754Y-131759000D02*
X115982754Y-133460000D01*
X115982754Y-135540000D02*
X115982754Y-137241000D01*
X116022754Y-131784000D02*
X116022754Y-133460000D01*
X116022754Y-135540000D02*
X116022754Y-137216000D01*
X116062754Y-131810000D02*
X116062754Y-133460000D01*
X116062754Y-135540000D02*
X116062754Y-137190000D01*
X116102754Y-131837000D02*
X116102754Y-133460000D01*
X116102754Y-135540000D02*
X116102754Y-137163000D01*
X116142754Y-131864000D02*
X116142754Y-133460000D01*
X116142754Y-135540000D02*
X116142754Y-137136000D01*
X116182754Y-131893000D02*
X116182754Y-133460000D01*
X116182754Y-135540000D02*
X116182754Y-137107000D01*
X116222754Y-131923000D02*
X116222754Y-133460000D01*
X116222754Y-135540000D02*
X116222754Y-137077000D01*
X116262754Y-131953000D02*
X116262754Y-133460000D01*
X116262754Y-135540000D02*
X116262754Y-137047000D01*
X116302754Y-131984000D02*
X116302754Y-133460000D01*
X116302754Y-135540000D02*
X116302754Y-137016000D01*
X116342754Y-132017000D02*
X116342754Y-133460000D01*
X116342754Y-135540000D02*
X116342754Y-136983000D01*
X116382754Y-132050000D02*
X116382754Y-133460000D01*
X116382754Y-135540000D02*
X116382754Y-136950000D01*
X116422754Y-132085000D02*
X116422754Y-133460000D01*
X116422754Y-135540000D02*
X116422754Y-136915000D01*
X116462754Y-132121000D02*
X116462754Y-133460000D01*
X116462754Y-135540000D02*
X116462754Y-136879000D01*
X116502754Y-132158000D02*
X116502754Y-133460000D01*
X116502754Y-135540000D02*
X116502754Y-136842000D01*
X116542754Y-132196000D02*
X116542754Y-133460000D01*
X116542754Y-135540000D02*
X116542754Y-136804000D01*
X116582754Y-132236000D02*
X116582754Y-136764000D01*
X116622754Y-132277000D02*
X116622754Y-136723000D01*
X116662754Y-132319000D02*
X116662754Y-136681000D01*
X116702754Y-132363000D02*
X116702754Y-136637000D01*
X116742754Y-132409000D02*
X116742754Y-136591000D01*
X116782754Y-132456000D02*
X116782754Y-136544000D01*
X116822754Y-132505000D02*
X116822754Y-136495000D01*
X116862754Y-132557000D02*
X116862754Y-136443000D01*
X116902754Y-132610000D02*
X116902754Y-136390000D01*
X116942754Y-132666000D02*
X116942754Y-136334000D01*
X116982754Y-132725000D02*
X116982754Y-136275000D01*
X117022754Y-132786000D02*
X117022754Y-136214000D01*
X117062754Y-132851000D02*
X117062754Y-136149000D01*
X117102754Y-132919000D02*
X117102754Y-136081000D01*
X117142754Y-132991000D02*
X117142754Y-136009000D01*
X117182754Y-133068000D02*
X117182754Y-135932000D01*
X117222754Y-133150000D02*
X117222754Y-135850000D01*
X117262754Y-133239000D02*
X117262754Y-135761000D01*
X117302754Y-133335000D02*
X117302754Y-135665000D01*
X117342754Y-133442000D02*
X117342754Y-135558000D01*
X117382754Y-133561000D02*
X117382754Y-135439000D01*
X117422754Y-133699000D02*
X117422754Y-135301000D01*
X117462754Y-133867000D02*
X117462754Y-135133000D01*
X117502754Y-134098000D02*
X117502754Y-134902000D01*
X117532754Y-134500000D02*
G75*
G02*
X110992754Y-134500000I-3270000J0D01*
G01*
X110992754Y-134500000D02*
G75*
G02*
X117532754Y-134500000I3270000J0D01*
G01*
%TO.C,U2*%
X150672754Y-141170000D02*
X150672754Y-159070000D01*
X150672754Y-159070000D02*
X155972754Y-159070000D01*
X152322754Y-141170000D02*
X150672754Y-141170000D01*
X155972754Y-141170000D02*
X154322754Y-141170000D01*
X155972754Y-159070000D02*
X155972754Y-141170000D01*
X154322754Y-141170000D02*
G75*
G02*
X152322754Y-141170000I-1000000J0D01*
G01*
%TO.C,R5*%
X79185436Y-76765000D02*
X79639564Y-76765000D01*
X79185436Y-78235000D02*
X79639564Y-78235000D01*
%TO.C,Y1*%
X95195000Y-80485000D02*
X101445000Y-80485000D01*
X101445000Y-85355000D02*
X95195000Y-85355000D01*
X95195000Y-85355000D02*
G75*
G02*
X95195000Y-80485000I0J2435000D01*
G01*
X101445000Y-80485000D02*
G75*
G02*
X101445000Y-85355000I0J-2435000D01*
G01*
%TO.C,C13*%
X94068748Y-88185000D02*
X94591252Y-88185000D01*
X94068748Y-89655000D02*
X94591252Y-89655000D01*
%TO.C,J4*%
X164500000Y-124500000D02*
G75*
G02*
X153500000Y-124500000I-5500000J0D01*
G01*
X153500000Y-124500000D02*
G75*
G02*
X164500000Y-124500000I5500000J0D01*
G01*
%TO.C,C3*%
X125751502Y-151265000D02*
X126274006Y-151265000D01*
X125751502Y-152735000D02*
X126274006Y-152735000D01*
%TO.C,C2*%
X112201502Y-150765000D02*
X112724006Y-150765000D01*
X112201502Y-152235000D02*
X112724006Y-152235000D01*
%TO.C,R3*%
X161765000Y-144139564D02*
X161765000Y-143685436D01*
X163235000Y-144139564D02*
X163235000Y-143685436D01*
%TO.C,C11*%
X79168748Y-91685000D02*
X79691252Y-91685000D01*
X79168748Y-93155000D02*
X79691252Y-93155000D01*
%TO.C,C1*%
X93560509Y-143445000D02*
X95160509Y-143445000D01*
X94360509Y-142645000D02*
X94360509Y-144245000D01*
X102250000Y-139920000D02*
X102250000Y-156080000D01*
X102290000Y-139920000D02*
X102290000Y-156080000D01*
X102330000Y-139920000D02*
X102330000Y-156080000D01*
X102370000Y-139921000D02*
X102370000Y-156079000D01*
X102410000Y-139922000D02*
X102410000Y-156078000D01*
X102450000Y-139922000D02*
X102450000Y-156078000D01*
X102490000Y-139924000D02*
X102490000Y-156076000D01*
X102530000Y-139925000D02*
X102530000Y-156075000D01*
X102570000Y-139926000D02*
X102570000Y-156074000D01*
X102610000Y-139928000D02*
X102610000Y-156072000D01*
X102650000Y-139930000D02*
X102650000Y-156070000D01*
X102690000Y-139932000D02*
X102690000Y-156068000D01*
X102730000Y-139934000D02*
X102730000Y-156066000D01*
X102770000Y-139937000D02*
X102770000Y-156063000D01*
X102810000Y-139939000D02*
X102810000Y-156061000D01*
X102850000Y-139942000D02*
X102850000Y-156058000D01*
X102890000Y-139945000D02*
X102890000Y-156055000D01*
X102930000Y-139949000D02*
X102930000Y-156051000D01*
X102970000Y-139952000D02*
X102970000Y-156048000D01*
X103010000Y-139956000D02*
X103010000Y-156044000D01*
X103050000Y-139960000D02*
X103050000Y-156040000D01*
X103090000Y-139964000D02*
X103090000Y-156036000D01*
X103130000Y-139968000D02*
X103130000Y-156032000D01*
X103170000Y-139972000D02*
X103170000Y-156028000D01*
X103210000Y-139977000D02*
X103210000Y-156023000D01*
X103250000Y-139982000D02*
X103250000Y-156018000D01*
X103290000Y-139987000D02*
X103290000Y-156013000D01*
X103330000Y-139992000D02*
X103330000Y-156008000D01*
X103370000Y-139998000D02*
X103370000Y-156002000D01*
X103410000Y-140003000D02*
X103410000Y-155997000D01*
X103450000Y-140009000D02*
X103450000Y-155991000D01*
X103490000Y-140015000D02*
X103490000Y-155985000D01*
X103530000Y-140022000D02*
X103530000Y-155978000D01*
X103570000Y-140028000D02*
X103570000Y-155972000D01*
X103610000Y-140035000D02*
X103610000Y-155965000D01*
X103650000Y-140042000D02*
X103650000Y-155958000D01*
X103690000Y-140049000D02*
X103690000Y-155951000D01*
X103730000Y-140056000D02*
X103730000Y-155944000D01*
X103770000Y-140064000D02*
X103770000Y-155936000D01*
X103810000Y-140071000D02*
X103810000Y-155929000D01*
X103850000Y-140079000D02*
X103850000Y-155921000D01*
X103890000Y-140087000D02*
X103890000Y-155913000D01*
X103930000Y-140096000D02*
X103930000Y-155904000D01*
X103970000Y-140104000D02*
X103970000Y-155896000D01*
X104010000Y-140113000D02*
X104010000Y-155887000D01*
X104050000Y-140122000D02*
X104050000Y-155878000D01*
X104090000Y-140131000D02*
X104090000Y-155869000D01*
X104130000Y-140141000D02*
X104130000Y-155859000D01*
X104170000Y-140150000D02*
X104170000Y-155850000D01*
X104210000Y-140160000D02*
X104210000Y-155840000D01*
X104250000Y-140170000D02*
X104250000Y-155830000D01*
X104290000Y-140180000D02*
X104290000Y-155820000D01*
X104330000Y-140191000D02*
X104330000Y-155809000D01*
X104370000Y-140202000D02*
X104370000Y-155798000D01*
X104410000Y-140213000D02*
X104410000Y-155787000D01*
X104450000Y-140224000D02*
X104450000Y-155776000D01*
X104490000Y-140235000D02*
X104490000Y-155765000D01*
X104530000Y-140247000D02*
X104530000Y-155753000D01*
X104570000Y-140258000D02*
X104570000Y-146560000D01*
X104570000Y-149440000D02*
X104570000Y-155742000D01*
X104610000Y-140271000D02*
X104610000Y-146560000D01*
X104610000Y-149440000D02*
X104610000Y-155729000D01*
X104650000Y-140283000D02*
X104650000Y-146560000D01*
X104650000Y-149440000D02*
X104650000Y-155717000D01*
X104690000Y-140295000D02*
X104690000Y-146560000D01*
X104690000Y-149440000D02*
X104690000Y-155705000D01*
X104730000Y-140308000D02*
X104730000Y-146560000D01*
X104730000Y-149440000D02*
X104730000Y-155692000D01*
X104770000Y-140321000D02*
X104770000Y-146560000D01*
X104770000Y-149440000D02*
X104770000Y-155679000D01*
X104810000Y-140334000D02*
X104810000Y-146560000D01*
X104810000Y-149440000D02*
X104810000Y-155666000D01*
X104850000Y-140348000D02*
X104850000Y-146560000D01*
X104850000Y-149440000D02*
X104850000Y-155652000D01*
X104890000Y-140361000D02*
X104890000Y-146560000D01*
X104890000Y-149440000D02*
X104890000Y-155639000D01*
X104930000Y-140375000D02*
X104930000Y-146560000D01*
X104930000Y-149440000D02*
X104930000Y-155625000D01*
X104970000Y-140389000D02*
X104970000Y-146560000D01*
X104970000Y-149440000D02*
X104970000Y-155611000D01*
X105010000Y-140403000D02*
X105010000Y-146560000D01*
X105010000Y-149440000D02*
X105010000Y-155597000D01*
X105050000Y-140418000D02*
X105050000Y-146560000D01*
X105050000Y-149440000D02*
X105050000Y-155582000D01*
X105090000Y-140433000D02*
X105090000Y-146560000D01*
X105090000Y-149440000D02*
X105090000Y-155567000D01*
X105130000Y-140448000D02*
X105130000Y-146560000D01*
X105130000Y-149440000D02*
X105130000Y-155552000D01*
X105170000Y-140463000D02*
X105170000Y-146560000D01*
X105170000Y-149440000D02*
X105170000Y-155537000D01*
X105210000Y-140479000D02*
X105210000Y-146560000D01*
X105210000Y-149440000D02*
X105210000Y-155521000D01*
X105250000Y-140495000D02*
X105250000Y-146560000D01*
X105250000Y-149440000D02*
X105250000Y-155505000D01*
X105290000Y-140511000D02*
X105290000Y-146560000D01*
X105290000Y-149440000D02*
X105290000Y-155489000D01*
X105330000Y-140527000D02*
X105330000Y-146560000D01*
X105330000Y-149440000D02*
X105330000Y-155473000D01*
X105370000Y-140543000D02*
X105370000Y-146560000D01*
X105370000Y-149440000D02*
X105370000Y-155457000D01*
X105410000Y-140560000D02*
X105410000Y-146560000D01*
X105410000Y-149440000D02*
X105410000Y-155440000D01*
X105450000Y-140577000D02*
X105450000Y-146560000D01*
X105450000Y-149440000D02*
X105450000Y-155423000D01*
X105490000Y-140594000D02*
X105490000Y-146560000D01*
X105490000Y-149440000D02*
X105490000Y-155406000D01*
X105530000Y-140612000D02*
X105530000Y-146560000D01*
X105530000Y-149440000D02*
X105530000Y-155388000D01*
X105570000Y-140630000D02*
X105570000Y-146560000D01*
X105570000Y-149440000D02*
X105570000Y-155370000D01*
X105610000Y-140648000D02*
X105610000Y-146560000D01*
X105610000Y-149440000D02*
X105610000Y-155352000D01*
X105650000Y-140666000D02*
X105650000Y-146560000D01*
X105650000Y-149440000D02*
X105650000Y-155334000D01*
X105690000Y-140685000D02*
X105690000Y-146560000D01*
X105690000Y-149440000D02*
X105690000Y-155315000D01*
X105730000Y-140704000D02*
X105730000Y-146560000D01*
X105730000Y-149440000D02*
X105730000Y-155296000D01*
X105770000Y-140723000D02*
X105770000Y-146560000D01*
X105770000Y-149440000D02*
X105770000Y-155277000D01*
X105810000Y-140742000D02*
X105810000Y-146560000D01*
X105810000Y-149440000D02*
X105810000Y-155258000D01*
X105850000Y-140762000D02*
X105850000Y-146560000D01*
X105850000Y-149440000D02*
X105850000Y-155238000D01*
X105890000Y-140782000D02*
X105890000Y-146560000D01*
X105890000Y-149440000D02*
X105890000Y-155218000D01*
X105930000Y-140802000D02*
X105930000Y-146560000D01*
X105930000Y-149440000D02*
X105930000Y-155198000D01*
X105970000Y-140822000D02*
X105970000Y-146560000D01*
X105970000Y-149440000D02*
X105970000Y-155178000D01*
X106010000Y-140843000D02*
X106010000Y-146560000D01*
X106010000Y-149440000D02*
X106010000Y-155157000D01*
X106050000Y-140864000D02*
X106050000Y-146560000D01*
X106050000Y-149440000D02*
X106050000Y-155136000D01*
X106090000Y-140885000D02*
X106090000Y-146560000D01*
X106090000Y-149440000D02*
X106090000Y-155115000D01*
X106130000Y-140907000D02*
X106130000Y-146560000D01*
X106130000Y-149440000D02*
X106130000Y-155093000D01*
X106170000Y-140929000D02*
X106170000Y-146560000D01*
X106170000Y-149440000D02*
X106170000Y-155071000D01*
X106210000Y-140951000D02*
X106210000Y-146560000D01*
X106210000Y-149440000D02*
X106210000Y-155049000D01*
X106250000Y-140974000D02*
X106250000Y-146560000D01*
X106250000Y-149440000D02*
X106250000Y-155026000D01*
X106290000Y-140996000D02*
X106290000Y-146560000D01*
X106290000Y-149440000D02*
X106290000Y-155004000D01*
X106330000Y-141019000D02*
X106330000Y-146560000D01*
X106330000Y-149440000D02*
X106330000Y-154981000D01*
X106370000Y-141043000D02*
X106370000Y-146560000D01*
X106370000Y-149440000D02*
X106370000Y-154957000D01*
X106410000Y-141067000D02*
X106410000Y-146560000D01*
X106410000Y-149440000D02*
X106410000Y-154933000D01*
X106450000Y-141091000D02*
X106450000Y-146560000D01*
X106450000Y-149440000D02*
X106450000Y-154909000D01*
X106490000Y-141115000D02*
X106490000Y-146560000D01*
X106490000Y-149440000D02*
X106490000Y-154885000D01*
X106530000Y-141140000D02*
X106530000Y-146560000D01*
X106530000Y-149440000D02*
X106530000Y-154860000D01*
X106570000Y-141165000D02*
X106570000Y-146560000D01*
X106570000Y-149440000D02*
X106570000Y-154835000D01*
X106610000Y-141190000D02*
X106610000Y-146560000D01*
X106610000Y-149440000D02*
X106610000Y-154810000D01*
X106650000Y-141215000D02*
X106650000Y-146560000D01*
X106650000Y-149440000D02*
X106650000Y-154785000D01*
X106690000Y-141241000D02*
X106690000Y-146560000D01*
X106690000Y-149440000D02*
X106690000Y-154759000D01*
X106730000Y-141268000D02*
X106730000Y-146560000D01*
X106730000Y-149440000D02*
X106730000Y-154732000D01*
X106770000Y-141294000D02*
X106770000Y-146560000D01*
X106770000Y-149440000D02*
X106770000Y-154706000D01*
X106810000Y-141321000D02*
X106810000Y-146560000D01*
X106810000Y-149440000D02*
X106810000Y-154679000D01*
X106850000Y-141349000D02*
X106850000Y-146560000D01*
X106850000Y-149440000D02*
X106850000Y-154651000D01*
X106890000Y-141376000D02*
X106890000Y-146560000D01*
X106890000Y-149440000D02*
X106890000Y-154624000D01*
X106930000Y-141404000D02*
X106930000Y-146560000D01*
X106930000Y-149440000D02*
X106930000Y-154596000D01*
X106970000Y-141433000D02*
X106970000Y-146560000D01*
X106970000Y-149440000D02*
X106970000Y-154567000D01*
X107010000Y-141461000D02*
X107010000Y-146560000D01*
X107010000Y-149440000D02*
X107010000Y-154539000D01*
X107050000Y-141491000D02*
X107050000Y-146560000D01*
X107050000Y-149440000D02*
X107050000Y-154509000D01*
X107090000Y-141520000D02*
X107090000Y-146560000D01*
X107090000Y-149440000D02*
X107090000Y-154480000D01*
X107130000Y-141550000D02*
X107130000Y-146560000D01*
X107130000Y-149440000D02*
X107130000Y-154450000D01*
X107170000Y-141580000D02*
X107170000Y-146560000D01*
X107170000Y-149440000D02*
X107170000Y-154420000D01*
X107210000Y-141611000D02*
X107210000Y-146560000D01*
X107210000Y-149440000D02*
X107210000Y-154389000D01*
X107250000Y-141642000D02*
X107250000Y-146560000D01*
X107250000Y-149440000D02*
X107250000Y-154358000D01*
X107290000Y-141673000D02*
X107290000Y-146560000D01*
X107290000Y-149440000D02*
X107290000Y-154327000D01*
X107330000Y-141705000D02*
X107330000Y-146560000D01*
X107330000Y-149440000D02*
X107330000Y-154295000D01*
X107370000Y-141738000D02*
X107370000Y-146560000D01*
X107370000Y-149440000D02*
X107370000Y-154262000D01*
X107410000Y-141770000D02*
X107410000Y-146560000D01*
X107410000Y-149440000D02*
X107410000Y-154230000D01*
X107450000Y-141803000D02*
X107450000Y-154197000D01*
X107490000Y-141837000D02*
X107490000Y-154163000D01*
X107530000Y-141871000D02*
X107530000Y-154129000D01*
X107570000Y-141906000D02*
X107570000Y-154094000D01*
X107610000Y-141940000D02*
X107610000Y-154060000D01*
X107650000Y-141976000D02*
X107650000Y-154024000D01*
X107690000Y-142012000D02*
X107690000Y-153988000D01*
X107730000Y-142048000D02*
X107730000Y-153952000D01*
X107770000Y-142085000D02*
X107770000Y-153915000D01*
X107810000Y-142122000D02*
X107810000Y-153878000D01*
X107850000Y-142160000D02*
X107850000Y-153840000D01*
X107890000Y-142198000D02*
X107890000Y-153802000D01*
X107930000Y-142237000D02*
X107930000Y-153763000D01*
X107970000Y-142277000D02*
X107970000Y-153723000D01*
X108010000Y-142317000D02*
X108010000Y-153683000D01*
X108050000Y-142357000D02*
X108050000Y-153643000D01*
X108090000Y-142398000D02*
X108090000Y-153602000D01*
X108130000Y-142440000D02*
X108130000Y-153560000D01*
X108170000Y-142482000D02*
X108170000Y-153518000D01*
X108210000Y-142525000D02*
X108210000Y-153475000D01*
X108250000Y-142569000D02*
X108250000Y-153431000D01*
X108290000Y-142613000D02*
X108290000Y-153387000D01*
X108330000Y-142658000D02*
X108330000Y-153342000D01*
X108370000Y-142703000D02*
X108370000Y-153297000D01*
X108410000Y-142750000D02*
X108410000Y-153250000D01*
X108450000Y-142796000D02*
X108450000Y-153204000D01*
X108490000Y-142844000D02*
X108490000Y-153156000D01*
X108530000Y-142893000D02*
X108530000Y-153107000D01*
X108570000Y-142942000D02*
X108570000Y-153058000D01*
X108610000Y-142992000D02*
X108610000Y-153008000D01*
X108650000Y-143043000D02*
X108650000Y-152957000D01*
X108690000Y-143094000D02*
X108690000Y-152906000D01*
X108730000Y-143147000D02*
X108730000Y-152853000D01*
X108770000Y-143200000D02*
X108770000Y-152800000D01*
X108810000Y-143255000D02*
X108810000Y-152745000D01*
X108850000Y-143310000D02*
X108850000Y-152690000D01*
X108890000Y-143366000D02*
X108890000Y-152634000D01*
X108930000Y-143424000D02*
X108930000Y-152576000D01*
X108970000Y-143482000D02*
X108970000Y-152518000D01*
X109010000Y-143541000D02*
X109010000Y-152459000D01*
X109050000Y-143602000D02*
X109050000Y-152398000D01*
X109090000Y-143664000D02*
X109090000Y-152336000D01*
X109130000Y-143727000D02*
X109130000Y-152273000D01*
X109170000Y-143792000D02*
X109170000Y-152208000D01*
X109210000Y-143858000D02*
X109210000Y-152142000D01*
X109250000Y-143925000D02*
X109250000Y-152075000D01*
X109290000Y-143994000D02*
X109290000Y-152006000D01*
X109330000Y-144064000D02*
X109330000Y-151936000D01*
X109370000Y-144136000D02*
X109370000Y-151864000D01*
X109410000Y-144210000D02*
X109410000Y-151790000D01*
X109450000Y-144286000D02*
X109450000Y-151714000D01*
X109490000Y-144363000D02*
X109490000Y-151637000D01*
X109530000Y-144443000D02*
X109530000Y-151557000D01*
X109570000Y-144525000D02*
X109570000Y-151475000D01*
X109610000Y-144610000D02*
X109610000Y-151390000D01*
X109650000Y-144697000D02*
X109650000Y-151303000D01*
X109690000Y-144787000D02*
X109690000Y-151213000D01*
X109730000Y-144880000D02*
X109730000Y-151120000D01*
X109770000Y-144977000D02*
X109770000Y-151023000D01*
X109810000Y-145077000D02*
X109810000Y-150923000D01*
X109850000Y-145181000D02*
X109850000Y-150819000D01*
X109890000Y-145290000D02*
X109890000Y-150710000D01*
X109930000Y-145403000D02*
X109930000Y-150597000D01*
X109970000Y-145523000D02*
X109970000Y-150477000D01*
X110010000Y-145649000D02*
X110010000Y-150351000D01*
X110050000Y-145783000D02*
X110050000Y-150217000D01*
X110090000Y-145926000D02*
X110090000Y-150074000D01*
X110130000Y-146080000D02*
X110130000Y-149920000D01*
X110170000Y-146249000D02*
X110170000Y-149751000D01*
X110210000Y-146436000D02*
X110210000Y-149564000D01*
X110250000Y-146649000D02*
X110250000Y-149351000D01*
X110290000Y-146903000D02*
X110290000Y-149097000D01*
X110330000Y-147235000D02*
X110330000Y-148765000D01*
X110370000Y-148000000D02*
G75*
G02*
X94130000Y-148000000I-8120000J0D01*
G01*
X94130000Y-148000000D02*
G75*
G02*
X110370000Y-148000000I8120000J0D01*
G01*
%TO.C,C12*%
X93711252Y-92765000D02*
X93188748Y-92765000D01*
X93711252Y-94235000D02*
X93188748Y-94235000D01*
%TO.C,C14*%
X99068748Y-88185000D02*
X99591252Y-88185000D01*
X99068748Y-89655000D02*
X99591252Y-89655000D01*
%TO.C,C16*%
X159788748Y-151765000D02*
X160311252Y-151765000D01*
X159788748Y-153235000D02*
X160311252Y-153235000D01*
%TO.C,RV3*%
X97665000Y-64980000D02*
X107415000Y-64980000D01*
X97665000Y-70030000D02*
X97665000Y-64980000D01*
X107415000Y-64980000D02*
X107415000Y-70030000D01*
X107415000Y-70030000D02*
X97665000Y-70030000D01*
%TO.C,R1*%
X130198190Y-142765000D02*
X130652318Y-142765000D01*
X130198190Y-144235000D02*
X130652318Y-144235000D01*
%TO.C,SW2*%
X101772754Y-117880000D02*
X101772754Y-118880000D01*
X101772754Y-117880000D02*
X102772754Y-117880000D01*
X101972754Y-124670000D02*
X101972754Y-125030000D01*
X102022754Y-118130000D02*
X102912754Y-118130000D01*
X102022754Y-119860000D02*
X102022754Y-118130000D01*
X102022754Y-122210000D02*
X102022754Y-122470000D01*
X102022754Y-129030000D02*
X102022754Y-127230000D01*
X102912754Y-129030000D02*
X102022754Y-129030000D01*
X103762755Y-126430001D02*
X103892755Y-126309999D01*
X104622753Y-127289999D02*
X104742755Y-127159999D01*
X106952754Y-129030000D02*
X107992754Y-129030000D01*
X106962754Y-118130000D02*
X107982754Y-118130000D01*
X112032754Y-118130000D02*
X112922754Y-118130000D01*
X112042754Y-129030000D02*
X112922754Y-129030000D01*
X112922754Y-118130000D02*
X112922754Y-119930000D01*
X112922754Y-129030000D02*
X112922754Y-127230000D01*
X112972754Y-122130000D02*
X112972754Y-122490000D01*
X112972754Y-124670000D02*
X112972754Y-125030000D01*
X103082754Y-122630000D02*
G75*
G02*
X103194951Y-122210703I4389900J-950000D01*
G01*
X103562754Y-121360000D02*
G75*
G02*
X105534222Y-119523081I3910000J-2220000D01*
G01*
X103901749Y-126303142D02*
G75*
G02*
X103083555Y-124530000I3571035J2723152D01*
G01*
X104622753Y-127289999D02*
G75*
G02*
X103762755Y-126430001I-429999J429999D01*
G01*
X105496339Y-127623585D02*
G75*
G02*
X104743595Y-127158895I1976415J4043585D01*
G01*
X106892754Y-119130001D02*
G75*
G02*
X108041661Y-119128569I580000J-4450099D01*
G01*
X108032754Y-128040000D02*
G75*
G02*
X106912754Y-128040000I-560000J4459931D01*
G01*
X109408024Y-119539875D02*
G75*
G02*
X111852753Y-122640000I-1935310J-4040175D01*
G01*
X111861954Y-124530000D02*
G75*
G02*
X109444813Y-127614670I-4389200J950000D01*
G01*
X110422754Y-123580000D02*
G75*
G02*
X104522754Y-123580000I-2950000J0D01*
G01*
X104522754Y-123580000D02*
G75*
G02*
X110422754Y-123580000I2950000J0D01*
G01*
%TO.C,C9*%
X93568748Y-69685000D02*
X94091252Y-69685000D01*
X93568748Y-71155000D02*
X94091252Y-71155000D01*
%TO.C,R4*%
X161765000Y-149639564D02*
X161765000Y-149185436D01*
X163235000Y-149639564D02*
X163235000Y-149185436D01*
%TO.C,C10*%
X93568748Y-97185000D02*
X94091252Y-97185000D01*
X93568748Y-98655000D02*
X94091252Y-98655000D01*
%TO.C,U6*%
X84040000Y-76010000D02*
X84040000Y-111690000D01*
X84040000Y-111690000D02*
X89340000Y-111690000D01*
X85690000Y-76010000D02*
X84040000Y-76010000D01*
X89340000Y-76010000D02*
X87690000Y-76010000D01*
X89340000Y-111690000D02*
X89340000Y-76010000D01*
X87690000Y-76010000D02*
G75*
G02*
X85690000Y-76010000I-1000000J0D01*
G01*
%TO.C,D1*%
X69272754Y-142800000D02*
X70772754Y-142800000D01*
X69272754Y-146400000D02*
X69272754Y-142800000D01*
X72472754Y-146400000D02*
X72472754Y-145900000D01*
X74772754Y-142800000D02*
X76272754Y-142800000D01*
X79472754Y-142800000D02*
X81372754Y-142800000D01*
X84472754Y-142800000D02*
X86472754Y-142800000D01*
X89572754Y-142800000D02*
X91572754Y-142800000D01*
X91572754Y-142800000D02*
X91572754Y-146400000D01*
X91572754Y-146400000D02*
X69272754Y-146400000D01*
%TD*%
M02*
