M48
; DRILL file {KiCad 9.0.6} date 2026-10-05T21:21:27+0200
; FORMAT={-:-/ absolute / metric / decimal}
; #@! TF.CreationDate,2026-10-05T21:21:27+02:00
; #@! TF.GenerationSoftware,Kicad,Pcbnew,9.0.6
; #@! TF.FileFunction,Plated,1,4,PTH
FMAT,2
METRIC
; #@! TA.AperFunction,Plated,PTH,ViaDrill
T1C0.400
; #@! TA.AperFunction,Plated,PTH,ComponentDrill
T2C0.800
; #@! TA.AperFunction,Plated,PTH,ComponentDrill
T3C1.000
; #@! TA.AperFunction,Plated,PTH,ComponentDrill
T4C1.100
; #@! TA.AperFunction,Plated,PTH,ComponentDrill
T5C1.200
; #@! TA.AperFunction,Plated,PTH,ComponentDrill
T6C1.600
; #@! TA.AperFunction,Plated,PTH,ComponentDrill
T7C1.800
; #@! TA.AperFunction,Plated,PTH,ComponentDrill
T8C2.500
; #@! TA.AperFunction,Plated,PTH,ComponentDrill
T9C6.100
%
G90
G05
T1
X78.5Y-94.0
X79.0Y-84.5
X80.0Y-71.5
X80.087Y-84.412
X80.5Y-95.0
X87.5Y-83.0
X87.5Y-87.0
X92.5Y-87.5
X93.0Y-71.5
X95.0Y-93.5
X95.92Y-97.92
X96.0Y-70.5
X97.0Y-88.5
X97.0Y-104.0
X97.0Y-121.0
X100.0Y-74.5
X100.5Y-93.0
X101.0Y-98.0
X102.0Y-86.5
X103.0Y-98.0
X103.5Y-87.5
X104.0Y-135.0
X107.5Y-130.5
X110.0Y-123.5
X115.5Y-126.5
X121.0Y-114.5
X121.0Y-149.5
X121.5Y-115.5
X126.0Y-141.0
X127.0Y-74.0
X132.5Y-147.0
X138.0Y-154.5
X139.5Y-156.0
X142.0Y-152.5
X143.5Y-140.0
X162.05Y-152.5
X162.5Y-141.5
X168.0Y-139.0
X172.5Y-139.0
X173.5Y-146.5
X173.5Y-148.5
X179.0Y-154.5
X182.5Y-146.5
T2
X82.88Y-77.34
X82.88Y-79.88
X82.88Y-82.42
X82.88Y-84.96
X82.88Y-87.5
X82.88Y-90.04
X82.88Y-92.58
X82.88Y-95.12
X82.88Y-97.66
X82.88Y-100.2
X82.88Y-102.74
X82.88Y-105.28
X82.88Y-107.82
X82.88Y-110.36
X90.5Y-77.34
X90.5Y-79.88
X90.5Y-82.42
X90.5Y-84.96
X90.5Y-87.5
X90.5Y-90.04
X90.5Y-92.58
X90.5Y-95.12
X90.5Y-97.66
X90.5Y-100.2
X90.5Y-102.74
X90.5Y-105.28
X90.5Y-107.82
X90.5Y-110.36
X95.88Y-82.92
X100.0Y-67.5
X100.76Y-82.92
X102.54Y-67.5
X105.08Y-67.5
X106.5Y-133.5
X108.5Y-133.5
X113.013Y-134.5
X115.513Y-134.5
X134.393Y-143.0
X134.393Y-145.54
X134.393Y-148.08
X134.393Y-150.62
X142.013Y-143.0
X142.013Y-145.54
X142.013Y-148.08
X142.013Y-150.62
X149.513Y-142.5
X149.513Y-145.04
X149.513Y-147.58
X149.513Y-150.12
X149.513Y-152.66
X149.513Y-155.2
X149.513Y-157.74
X157.133Y-142.5
X157.133Y-145.04
X157.133Y-147.58
X157.133Y-150.12
X157.133Y-152.66
X157.133Y-155.2
X157.133Y-157.74
X168.708Y-143.69
X168.708Y-146.23
X168.708Y-148.77
X168.708Y-151.31
X176.328Y-143.69
X176.328Y-146.23
X176.328Y-148.77
X176.328Y-151.31
T3
X90.013Y-120.525
X90.013Y-123.025
X90.013Y-125.525
X102.393Y-121.04
X102.393Y-123.58
X102.393Y-126.12
X104.933Y-118.5
X104.933Y-128.66
X110.013Y-118.5
X110.013Y-128.66
X112.553Y-121.04
X112.553Y-123.58
X112.553Y-126.12
X130.013Y-121.0
X130.013Y-123.5
X130.013Y-126.0
X145.5Y-135.5
X156.0Y-136.0
T4
X84.0Y-71.0
X86.54Y-71.0
X89.08Y-71.0
X116.933Y-147.5
X119.473Y-147.5
X122.013Y-147.5
T5
X98.5Y-148.0
X106.0Y-148.0
X117.9Y-77.5
X120.44Y-77.5
X122.98Y-77.5
X125.52Y-77.5
X128.06Y-77.5
X130.6Y-77.5
X133.14Y-77.5
X135.68Y-77.5
X138.22Y-77.5
X140.76Y-77.5
X143.3Y-77.5
X145.84Y-77.5
X148.38Y-77.5
X150.92Y-77.5
X153.46Y-77.5
X156.0Y-77.5
T6
X72.773Y-144.0
X77.853Y-144.0
X82.933Y-144.0
X88.013Y-144.0
T8
X112.401Y-77.5
X112.401Y-108.501
X187.399Y-108.501
X187.4Y-77.5
T9
X45.013Y-142.5
X58.513Y-143.0
X146.013Y-124.0
X159.0Y-124.5
T7
G00X93.463Y-118.025
M15
G01X93.163Y-118.025
M16
G05
G00X93.463Y-128.025
M15
G01X93.163Y-128.025
M16
G05
G00X133.463Y-118.5
M15
G01X133.163Y-118.5
M16
G05
G00X133.463Y-128.5
M15
G01X133.163Y-128.5
M16
G05
M30
