%TF.GenerationSoftware,KiCad,Pcbnew,9.0.6*%
%TF.CreationDate,2026-10-05T21:20:09+02:00*%
%TF.ProjectId,Flachbaugruppe,466c6163-6862-4617-9567-72757070652e,rev?*%
%TF.SameCoordinates,Original*%
%TF.FileFunction,Copper,L1,Top*%
%TF.FilePolarity,Positive*%
%FSLAX46Y46*%
G04 Gerber Fmt 4.6, Leading zero omitted, Abs format (unit mm)*
G04 Created by KiCad (PCBNEW 9.0.6) date 2026-10-05 21:20:09*
%MOMM*%
%LPD*%
G01*
G04 APERTURE LIST*
G04 Aperture macros list*
%AMRoundRect*
0 Rectangle with rounded corners*
0 $1 Rounding radius*
0 $2 $3 $4 $5 $6 $7 $8 $9 X,Y pos of 4 corners*
0 Add a 4 corners polygon primitive as box body*
4,1,4,$2,$3,$4,$5,$6,$7,$8,$9,$2,$3,0*
0 Add four circle primitives for the rounded corners*
1,1,$1+$1,$2,$3*
1,1,$1+$1,$4,$5*
1,1,$1+$1,$6,$7*
1,1,$1+$1,$8,$9*
0 Add four rect primitives between the rounded corners*
20,1,$1+$1,$2,$3,$4,$5,0*
20,1,$1+$1,$4,$5,$6,$7,0*
20,1,$1+$1,$6,$7,$8,$9,0*
20,1,$1+$1,$8,$9,$2,$3,0*%
G04 Aperture macros list end*
%TA.AperFunction,SMDPad,CuDef*%
%ADD10RoundRect,0.250000X-0.262500X-0.450000X0.262500X-0.450000X0.262500X0.450000X-0.262500X0.450000X0*%
%TD*%
%TA.AperFunction,SMDPad,CuDef*%
%ADD11RoundRect,0.250000X-0.250000X-0.475000X0.250000X-0.475000X0.250000X0.475000X-0.250000X0.475000X0*%
%TD*%
%TA.AperFunction,ComponentPad*%
%ADD12C,3.000000*%
%TD*%
%TA.AperFunction,ComponentPad*%
%ADD13R,1.800000X2.600000*%
%TD*%
%TA.AperFunction,ComponentPad*%
%ADD14O,1.800000X2.600000*%
%TD*%
%TA.AperFunction,ComponentPad*%
%ADD15C,10.160000*%
%TD*%
%TA.AperFunction,ComponentPad*%
%ADD16C,2.000000*%
%TD*%
%TA.AperFunction,ComponentPad*%
%ADD17R,1.800000X1.800000*%
%TD*%
%TA.AperFunction,ComponentPad*%
%ADD18C,1.800000*%
%TD*%
%TA.AperFunction,ComponentPad*%
%ADD19RoundRect,0.750000X1.250000X0.750000X-1.250000X0.750000X-1.250000X-0.750000X1.250000X-0.750000X0*%
%TD*%
%TA.AperFunction,ComponentPad*%
%ADD20RoundRect,0.250000X-0.550000X-0.550000X0.550000X-0.550000X0.550000X0.550000X-0.550000X0.550000X0*%
%TD*%
%TA.AperFunction,ComponentPad*%
%ADD21C,1.600000*%
%TD*%
%TA.AperFunction,ComponentPad*%
%ADD22R,1.905000X2.000000*%
%TD*%
%TA.AperFunction,ComponentPad*%
%ADD23O,1.905000X2.000000*%
%TD*%
%TA.AperFunction,SMDPad,CuDef*%
%ADD24RoundRect,0.250000X0.262500X0.450000X-0.262500X0.450000X-0.262500X-0.450000X0.262500X-0.450000X0*%
%TD*%
%TA.AperFunction,ComponentPad*%
%ADD25C,1.500000*%
%TD*%
%TA.AperFunction,SMDPad,CuDef*%
%ADD26RoundRect,0.250000X0.450000X-0.262500X0.450000X0.262500X-0.450000X0.262500X-0.450000X-0.262500X0*%
%TD*%
%TA.AperFunction,ComponentPad*%
%ADD27RoundRect,0.250001X-0.949999X-0.949999X0.949999X-0.949999X0.949999X0.949999X-0.949999X0.949999X0*%
%TD*%
%TA.AperFunction,ComponentPad*%
%ADD28C,2.400000*%
%TD*%
%TA.AperFunction,SMDPad,CuDef*%
%ADD29RoundRect,0.250000X0.250000X0.475000X-0.250000X0.475000X-0.250000X-0.475000X0.250000X-0.475000X0*%
%TD*%
%TA.AperFunction,ComponentPad*%
%ADD30C,1.440000*%
%TD*%
%TA.AperFunction,ComponentPad*%
%ADD31RoundRect,0.375000X-1.375000X-0.375000X1.375000X-0.375000X1.375000X0.375000X-1.375000X0.375000X0*%
%TD*%
%TA.AperFunction,ComponentPad*%
%ADD32R,3.200000X3.200000*%
%TD*%
%TA.AperFunction,ComponentPad*%
%ADD33C,3.200000*%
%TD*%
%TA.AperFunction,ViaPad*%
%ADD34C,0.800000*%
%TD*%
%TA.AperFunction,Conductor*%
%ADD35C,0.200000*%
%TD*%
%TA.AperFunction,Conductor*%
%ADD36C,1.000000*%
%TD*%
%TA.AperFunction,Conductor*%
%ADD37C,0.500000*%
%TD*%
G04 APERTURE END LIST*
D10*
%TO.P,R11,1*%
%TO.N,Net-(J3-Pin_1)*%
X99175000Y-95050000D03*
%TO.P,R11,2*%
%TO.N,Net-(U6-PC0)*%
X101000000Y-95050000D03*
%TD*%
D11*
%TO.P,C4,1*%
%TO.N,Net-(U3-CV)*%
X136612754Y-156000000D03*
%TO.P,C4,2*%
%TO.N,GND*%
X138512754Y-156000000D03*
%TD*%
D12*
%TO.P,DS1,*%
%TO.N,*%
X112400900Y-77500000D03*
X112400900Y-108500700D03*
X187399480Y-108500700D03*
X187400000Y-77500000D03*
D13*
%TO.P,DS1,1,VSS*%
%TO.N,GND*%
X117900000Y-77500000D03*
D14*
%TO.P,DS1,2,VDD*%
%TO.N,+5V*%
X120440000Y-77500000D03*
%TO.P,DS1,3,VO*%
%TO.N,Net-(DS1-VO)*%
X122980000Y-77500000D03*
%TO.P,DS1,4,RS*%
%TO.N,Net-(DS1-RS)*%
X125520000Y-77500000D03*
%TO.P,DS1,5,R/W*%
%TO.N,GND*%
X128060000Y-77500000D03*
%TO.P,DS1,6,E*%
%TO.N,Net-(DS1-E)*%
X130600000Y-77500000D03*
%TO.P,DS1,7,D0*%
%TO.N,unconnected-(DS1-D0-Pad7)*%
X133140000Y-77500000D03*
%TO.P,DS1,8,D1*%
%TO.N,unconnected-(DS1-D1-Pad8)*%
X135680000Y-77500000D03*
%TO.P,DS1,9,D2*%
%TO.N,unconnected-(DS1-D2-Pad9)*%
X138220000Y-77500000D03*
%TO.P,DS1,10,D3*%
%TO.N,unconnected-(DS1-D3-Pad10)*%
X140760000Y-77500000D03*
%TO.P,DS1,11,D4*%
%TO.N,Net-(DS1-D4)*%
X143300000Y-77500000D03*
%TO.P,DS1,12,D5*%
%TO.N,Net-(DS1-D5)*%
X145840000Y-77500000D03*
%TO.P,DS1,13,D6*%
%TO.N,Net-(DS1-D6)*%
X148380000Y-77500000D03*
%TO.P,DS1,14,D7*%
%TO.N,Net-(DS1-D7)*%
X150920000Y-77500000D03*
%TO.P,DS1,15,LED(+)*%
%TO.N,Net-(DS1-LED(+))*%
X153460000Y-77500000D03*
%TO.P,DS1,16,LED(-)*%
%TO.N,GND*%
X156000000Y-77500000D03*
%TD*%
D11*
%TO.P,C8,1*%
%TO.N,/+18v*%
X77880000Y-70420000D03*
%TO.P,C8,2*%
%TO.N,GND*%
X79780000Y-70420000D03*
%TD*%
D10*
%TO.P,R12,1*%
%TO.N,Net-(U6-PC0)*%
X99175000Y-98000000D03*
%TO.P,R12,2*%
%TO.N,GND*%
X101000000Y-98000000D03*
%TD*%
D15*
%TO.P,J1,1,Pin_1*%
%TO.N,Net-(J1-Pin_1)*%
X45012754Y-142500000D03*
%TD*%
D16*
%TO.P,TP1,1,1*%
%TO.N,Net-(J3-Pin_1)*%
X145500000Y-135500000D03*
%TD*%
D15*
%TO.P,J3,1,Pin_1*%
%TO.N,Net-(J3-Pin_1)*%
X146012754Y-124000000D03*
%TD*%
D17*
%TO.P,RV2,1,1*%
%TO.N,Net-(J3-Pin_1)*%
X130012754Y-121000000D03*
D18*
%TO.P,RV2,2,2*%
X130012754Y-123500000D03*
%TO.P,RV2,3,3*%
%TO.N,Net-(R7-Pad1)*%
X130012754Y-126000000D03*
D19*
%TO.P,RV2,MP*%
%TO.N,N/C*%
X133312754Y-118500000D03*
X133312754Y-128500000D03*
%TD*%
D20*
%TO.P,U3,1,GND*%
%TO.N,GND*%
X134392754Y-143000000D03*
D21*
%TO.P,U3,2,TR*%
%TO.N,Net-(SW2-Common)*%
X134392754Y-145540000D03*
%TO.P,U3,3,Q*%
%TO.N,Net-(U2A-C)*%
X134392754Y-148080000D03*
%TO.P,U3,4,R*%
%TO.N,/+18v*%
X134392754Y-150620000D03*
%TO.P,U3,5,CV*%
%TO.N,Net-(U3-CV)*%
X142012754Y-150620000D03*
%TO.P,U3,6,THR*%
%TO.N,Net-(SW2-Common)*%
X142012754Y-148080000D03*
%TO.P,U3,7,DIS*%
%TO.N,Net-(U3-DIS)*%
X142012754Y-145540000D03*
%TO.P,U3,8,VCC*%
%TO.N,/+18v*%
X142012754Y-143000000D03*
%TD*%
D22*
%TO.P,U1,1,VI*%
%TO.N,Net-(D1-+)*%
X116932754Y-147500000D03*
D23*
%TO.P,U1,2,GND*%
%TO.N,GND*%
X119472754Y-147500000D03*
%TO.P,U1,3,VO*%
%TO.N,/+18v*%
X122012754Y-147500000D03*
%TD*%
D10*
%TO.P,R9,1*%
%TO.N,Net-(U6-PB0)*%
X78175000Y-86000000D03*
%TO.P,R9,2*%
%TO.N,GND*%
X80000000Y-86000000D03*
%TD*%
D22*
%TO.P,U4,1,VI*%
%TO.N,/+18v*%
X84000000Y-71000000D03*
D23*
%TO.P,U4,2,GND*%
%TO.N,GND*%
X86540000Y-71000000D03*
%TO.P,U4,3,VO*%
%TO.N,+5V*%
X89080000Y-71000000D03*
%TD*%
D17*
%TO.P,RV1,1,1*%
%TO.N,Net-(R2-Pad2)*%
X90012754Y-120525000D03*
D18*
%TO.P,RV1,2,2*%
%TO.N,Net-(SW2-Common)*%
X90012754Y-123025000D03*
%TO.P,RV1,3,3*%
X90012754Y-125525000D03*
D19*
%TO.P,RV1,MP*%
%TO.N,N/C*%
X93312754Y-118025000D03*
X93312754Y-128025000D03*
%TD*%
D24*
%TO.P,R10,1*%
%TO.N,Net-(DS1-LED(+))*%
X145325000Y-72500000D03*
%TO.P,R10,2*%
%TO.N,+5V*%
X143500000Y-72500000D03*
%TD*%
D10*
%TO.P,R6,1*%
%TO.N,Net-(U5A--)*%
X179012754Y-146500000D03*
%TO.P,R6,2*%
%TO.N,GND*%
X180837754Y-146500000D03*
%TD*%
D20*
%TO.P,U5,1*%
%TO.N,Net-(J3-Pin_1)*%
X168707754Y-143690000D03*
D21*
%TO.P,U5,2,-*%
%TO.N,Net-(U5A--)*%
X168707754Y-146230000D03*
%TO.P,U5,3,+*%
%TO.N,Net-(U5A-+)*%
X168707754Y-148770000D03*
%TO.P,U5,4,V-*%
%TO.N,GND*%
X168707754Y-151310000D03*
%TO.P,U5,5,+*%
X176327754Y-151310000D03*
%TO.P,U5,6,-*%
%TO.N,Net-(U5B--)*%
X176327754Y-148770000D03*
%TO.P,U5,7*%
X176327754Y-146230000D03*
%TO.P,U5,8,V+*%
%TO.N,/+18v*%
X176327754Y-143690000D03*
%TD*%
D11*
%TO.P,C15,1*%
%TO.N,/+18v*%
X169000000Y-139000000D03*
%TO.P,C15,2*%
%TO.N,GND*%
X170900000Y-139000000D03*
%TD*%
D15*
%TO.P,J2,1,Pin_1*%
%TO.N,Net-(J2-Pin_1)*%
X58512754Y-143000000D03*
%TD*%
D10*
%TO.P,R7,1*%
%TO.N,Net-(R7-Pad1)*%
X179012754Y-150000000D03*
%TO.P,R7,2*%
%TO.N,Net-(U5A--)*%
X180837754Y-150000000D03*
%TD*%
D16*
%TO.P,TP2,1,1*%
%TO.N,GND*%
X156000000Y-136000000D03*
%TD*%
D10*
%TO.P,R2,1*%
%TO.N,Net-(U3-DIS)*%
X129512754Y-147000000D03*
%TO.P,R2,2*%
%TO.N,Net-(R2-Pad2)*%
X131337754Y-147000000D03*
%TD*%
D11*
%TO.P,C6,1*%
%TO.N,Net-(C6-Pad1)*%
X101012754Y-134000000D03*
%TO.P,C6,2*%
%TO.N,GND*%
X102912754Y-134000000D03*
%TD*%
D20*
%TO.P,C7,1*%
%TO.N,Net-(C7-Pad1)*%
X106500000Y-133500000D03*
D21*
%TO.P,C7,2*%
%TO.N,GND*%
X108500000Y-133500000D03*
%TD*%
D10*
%TO.P,R8,1*%
%TO.N,Net-(U2A-Q)*%
X78175000Y-82500000D03*
%TO.P,R8,2*%
%TO.N,Net-(U6-PB0)*%
X80000000Y-82500000D03*
%TD*%
D20*
%TO.P,C5,1*%
%TO.N,Net-(C5-Pad1)*%
X113012754Y-134500000D03*
D21*
%TO.P,C5,2*%
%TO.N,GND*%
X115512754Y-134500000D03*
%TD*%
D20*
%TO.P,U2,1,Q*%
%TO.N,Net-(U2A-Q)*%
X149512754Y-142500000D03*
D21*
%TO.P,U2,2,~{Q}*%
%TO.N,Net-(U2A-D)*%
X149512754Y-145040000D03*
%TO.P,U2,3,C*%
%TO.N,Net-(U2A-C)*%
X149512754Y-147580000D03*
%TO.P,U2,4,R*%
%TO.N,GND*%
X149512754Y-150120000D03*
%TO.P,U2,5,D*%
%TO.N,Net-(U2A-D)*%
X149512754Y-152660000D03*
%TO.P,U2,6,S*%
%TO.N,GND*%
X149512754Y-155200000D03*
%TO.P,U2,7,VSS*%
X149512754Y-157740000D03*
%TO.P,U2,8,S*%
X157132754Y-157740000D03*
%TO.P,U2,9,D*%
X157132754Y-155200000D03*
%TO.P,U2,10,R*%
X157132754Y-152660000D03*
%TO.P,U2,11,C*%
X157132754Y-150120000D03*
%TO.P,U2,12,~{Q}*%
%TO.N,unconnected-(U2B-~{Q}-Pad12)*%
X157132754Y-147580000D03*
%TO.P,U2,13,Q*%
%TO.N,unconnected-(U2B-Q-Pad13)*%
X157132754Y-145040000D03*
%TO.P,U2,14,VDD*%
%TO.N,/+18v*%
X157132754Y-142500000D03*
%TD*%
D10*
%TO.P,R5,1*%
%TO.N,+5V*%
X78500000Y-77500000D03*
%TO.P,R5,2*%
%TO.N,Net-(U6-~{RESET}{slash}PC6)*%
X80325000Y-77500000D03*
%TD*%
D25*
%TO.P,Y1,1,1*%
%TO.N,Net-(U6-XTAL2{slash}PB7)*%
X95880000Y-82920000D03*
%TO.P,Y1,2,2*%
%TO.N,Net-(U6-XTAL1{slash}PB6)*%
X100760000Y-82920000D03*
%TD*%
D11*
%TO.P,C13,1*%
%TO.N,GND*%
X93380000Y-88920000D03*
%TO.P,C13,2*%
%TO.N,Net-(U6-XTAL1{slash}PB6)*%
X95280000Y-88920000D03*
%TD*%
D15*
%TO.P,J4,1,Pin_1*%
%TO.N,GND*%
X159000000Y-124500000D03*
%TD*%
D11*
%TO.P,C3,1*%
%TO.N,/+18v*%
X125062754Y-152000000D03*
%TO.P,C3,2*%
%TO.N,GND*%
X126962754Y-152000000D03*
%TD*%
%TO.P,C2,1*%
%TO.N,Net-(D1-+)*%
X111512754Y-151500000D03*
%TO.P,C2,2*%
%TO.N,GND*%
X113412754Y-151500000D03*
%TD*%
D26*
%TO.P,R3,1*%
%TO.N,Net-(U5A-+)*%
X162500000Y-144825000D03*
%TO.P,R3,2*%
%TO.N,GND*%
X162500000Y-143000000D03*
%TD*%
D11*
%TO.P,C11,1*%
%TO.N,GND*%
X78480000Y-92420000D03*
%TO.P,C11,2*%
%TO.N,+5V*%
X80380000Y-92420000D03*
%TD*%
D27*
%TO.P,C1,1*%
%TO.N,Net-(D1-+)*%
X98500000Y-148000000D03*
D28*
%TO.P,C1,2*%
%TO.N,GND*%
X106000000Y-148000000D03*
%TD*%
D29*
%TO.P,C12,1*%
%TO.N,GND*%
X94400000Y-93500000D03*
%TO.P,C12,2*%
%TO.N,Net-(U6-AREF)*%
X92500000Y-93500000D03*
%TD*%
D11*
%TO.P,C14,1*%
%TO.N,GND*%
X98380000Y-88920000D03*
%TO.P,C14,2*%
%TO.N,Net-(U6-XTAL2{slash}PB7)*%
X100280000Y-88920000D03*
%TD*%
%TO.P,C16,1*%
%TO.N,/+18v*%
X159100000Y-152500000D03*
%TO.P,C16,2*%
%TO.N,GND*%
X161000000Y-152500000D03*
%TD*%
D30*
%TO.P,RV3,1,1*%
%TO.N,GND*%
X105080000Y-67500000D03*
%TO.P,RV3,2,2*%
%TO.N,Net-(DS1-VO)*%
X102540000Y-67500000D03*
%TO.P,RV3,3,3*%
%TO.N,+5V*%
X100000000Y-67500000D03*
%TD*%
D10*
%TO.P,R1,1*%
%TO.N,/+18v*%
X129512754Y-143500000D03*
%TO.P,R1,2*%
%TO.N,Net-(U3-DIS)*%
X131337754Y-143500000D03*
%TD*%
D17*
%TO.P,SW2,1,1*%
%TO.N,Net-(C5-Pad1)*%
X102392754Y-121040000D03*
D18*
%TO.P,SW2,2,2*%
%TO.N,Net-(C7-Pad1)*%
X112552754Y-121040000D03*
%TO.P,SW2,3,3*%
%TO.N,Net-(C6-Pad1)*%
X112552754Y-123580000D03*
%TO.P,SW2,4*%
%TO.N,unconnected-(SW2-Pad4)*%
X112552754Y-126120000D03*
%TO.P,SW2,5*%
%TO.N,unconnected-(SW2-Pad5)*%
X102392754Y-126120000D03*
%TO.P,SW2,C,Common*%
%TO.N,Net-(SW2-Common)*%
X102392754Y-123580000D03*
D31*
%TO.P,SW2,MP,MP*%
%TO.N,unconnected-(SW2-PadMP)_1*%
X104932754Y-118500000D03*
%TO.N,unconnected-(SW2-PadMP)*%
X104932754Y-128660000D03*
%TO.N,unconnected-(SW2-PadMP)_3*%
X110012754Y-118500000D03*
%TO.N,unconnected-(SW2-PadMP)_2*%
X110012754Y-128660000D03*
%TD*%
D11*
%TO.P,C9,1*%
%TO.N,+5V*%
X92880000Y-70420000D03*
%TO.P,C9,2*%
%TO.N,GND*%
X94780000Y-70420000D03*
%TD*%
D26*
%TO.P,R4,1*%
%TO.N,Net-(U2A-Q)*%
X162500000Y-150325000D03*
%TO.P,R4,2*%
%TO.N,Net-(U5A-+)*%
X162500000Y-148500000D03*
%TD*%
D11*
%TO.P,C10,1*%
%TO.N,+5V*%
X92880000Y-97920000D03*
%TO.P,C10,2*%
%TO.N,GND*%
X94780000Y-97920000D03*
%TD*%
D20*
%TO.P,U6,1,~{RESET}/PC6*%
%TO.N,Net-(U6-~{RESET}{slash}PC6)*%
X82880000Y-77340000D03*
D21*
%TO.P,U6,2,PD0*%
%TO.N,unconnected-(U6-PD0-Pad2)*%
X82880000Y-79880000D03*
%TO.P,U6,3,PD1*%
%TO.N,unconnected-(U6-PD1-Pad3)*%
X82880000Y-82420000D03*
%TO.P,U6,4,PD2*%
%TO.N,Net-(DS1-RS)*%
X82880000Y-84960000D03*
%TO.P,U6,5,PD3*%
%TO.N,Net-(DS1-E)*%
X82880000Y-87500000D03*
%TO.P,U6,6,PD4*%
%TO.N,Net-(DS1-D4)*%
X82880000Y-90040000D03*
%TO.P,U6,7,VCC*%
%TO.N,+5V*%
X82880000Y-92580000D03*
%TO.P,U6,8,GND*%
%TO.N,GND*%
X82880000Y-95120000D03*
%TO.P,U6,9,XTAL1/PB6*%
%TO.N,Net-(U6-XTAL1{slash}PB6)*%
X82880000Y-97660000D03*
%TO.P,U6,10,XTAL2/PB7*%
%TO.N,Net-(U6-XTAL2{slash}PB7)*%
X82880000Y-100200000D03*
%TO.P,U6,11,PD5*%
%TO.N,Net-(DS1-D5)*%
X82880000Y-102740000D03*
%TO.P,U6,12,PD6*%
%TO.N,Net-(DS1-D6)*%
X82880000Y-105280000D03*
%TO.P,U6,13,PD7*%
%TO.N,Net-(DS1-D7)*%
X82880000Y-107820000D03*
%TO.P,U6,14,PB0*%
%TO.N,Net-(U6-PB0)*%
X82880000Y-110360000D03*
%TO.P,U6,15,PB1*%
%TO.N,unconnected-(U6-PB1-Pad15)*%
X90500000Y-110360000D03*
%TO.P,U6,16,PB2*%
%TO.N,unconnected-(U6-PB2-Pad16)*%
X90500000Y-107820000D03*
%TO.P,U6,17,PB3*%
%TO.N,unconnected-(U6-PB3-Pad17)*%
X90500000Y-105280000D03*
%TO.P,U6,18,PB4*%
%TO.N,unconnected-(U6-PB4-Pad18)*%
X90500000Y-102740000D03*
%TO.P,U6,19,PB5*%
%TO.N,unconnected-(U6-PB5-Pad19)*%
X90500000Y-100200000D03*
%TO.P,U6,20,AVCC*%
%TO.N,+5V*%
X90500000Y-97660000D03*
%TO.P,U6,21,AREF*%
%TO.N,Net-(U6-AREF)*%
X90500000Y-95120000D03*
%TO.P,U6,22,GND*%
%TO.N,GND*%
X90500000Y-92580000D03*
%TO.P,U6,23,PC0*%
%TO.N,Net-(U6-PC0)*%
X90500000Y-90040000D03*
%TO.P,U6,24,PC1*%
%TO.N,unconnected-(U6-PC1-Pad24)*%
X90500000Y-87500000D03*
%TO.P,U6,25,PC2*%
%TO.N,unconnected-(U6-PC2-Pad25)*%
X90500000Y-84960000D03*
%TO.P,U6,26,PC3*%
%TO.N,unconnected-(U6-PC3-Pad26)*%
X90500000Y-82420000D03*
%TO.P,U6,27,PC4*%
%TO.N,unconnected-(U6-PC4-Pad27)*%
X90500000Y-79880000D03*
%TO.P,U6,28,PC5*%
%TO.N,unconnected-(U6-PC5-Pad28)*%
X90500000Y-77340000D03*
%TD*%
D32*
%TO.P,D1,1,+*%
%TO.N,Net-(D1-+)*%
X72772754Y-144000000D03*
D33*
%TO.P,D1,2*%
%TO.N,Net-(J2-Pin_1)*%
X77852754Y-144000000D03*
%TO.P,D1,3*%
%TO.N,Net-(J1-Pin_1)*%
X82932754Y-144000000D03*
%TO.P,D1,4,-*%
%TO.N,GND*%
X88012754Y-144000000D03*
%TD*%
D34*
%TO.N,GND*%
X182500000Y-146500000D03*
X103000000Y-98000000D03*
X95000000Y-93500000D03*
X139500000Y-156000000D03*
X96000000Y-70500000D03*
X92500000Y-87500000D03*
X79000000Y-84500000D03*
X95920000Y-97920000D03*
X162500000Y-141500000D03*
X101000000Y-98000000D03*
X80000000Y-71500000D03*
X172500000Y-139000000D03*
X97000000Y-88500000D03*
X104000000Y-135000000D03*
X162050000Y-152500000D03*
X80500000Y-95000000D03*
X78500000Y-94000000D03*
X121000000Y-149500000D03*
%TO.N,/+18v*%
X168000000Y-139000000D03*
%TO.N,Net-(U3-CV)*%
X138000000Y-154500000D03*
X142000000Y-152500000D03*
%TO.N,Net-(C6-Pad1)*%
X107500000Y-130500000D03*
X110000000Y-123500000D03*
%TO.N,Net-(C7-Pad1)*%
X115500000Y-126500000D03*
%TO.N,+5V*%
X127000000Y-74000000D03*
X93000000Y-71500000D03*
%TO.N,Net-(DS1-D7)*%
X121500000Y-115500000D03*
%TO.N,Net-(U6-XTAL2{slash}PB7)*%
X102000000Y-86500000D03*
%TO.N,Net-(DS1-D4)*%
X87500000Y-87000000D03*
X103500000Y-87500000D03*
%TO.N,Net-(DS1-E)*%
X87500000Y-83000000D03*
X100000000Y-74500000D03*
%TO.N,Net-(DS1-D6)*%
X121000000Y-114500000D03*
%TO.N,Net-(DS1-D5)*%
X97000000Y-104000000D03*
%TO.N,Net-(R2-Pad2)*%
X97000000Y-121000000D03*
X132500000Y-147000000D03*
%TO.N,Net-(U2A-Q)*%
X80087500Y-84412500D03*
%TO.N,Net-(R7-Pad1)*%
X143500000Y-140000000D03*
X179000000Y-154500000D03*
%TO.N,Net-(SW2-Common)*%
X126000000Y-141000000D03*
%TO.N,Net-(U5B--)*%
X173500000Y-148500000D03*
X173500000Y-146500000D03*
%TO.N,Net-(U6-PC0)*%
X100500000Y-93000000D03*
%TD*%
D35*
%TO.N,GND*%
X93380000Y-88380000D02*
X92500000Y-87500000D01*
D36*
X88012754Y-144000000D02*
X95512754Y-151500000D01*
D35*
X123962754Y-155000000D02*
X122500000Y-155000000D01*
D37*
X95920000Y-70420000D02*
X96000000Y-70500000D01*
D35*
X78000000Y-92900000D02*
X78480000Y-92420000D01*
D37*
X103000000Y-134000000D02*
X104000000Y-135000000D01*
D36*
X95512754Y-151500000D02*
X105000000Y-151500000D01*
D35*
X159012754Y-124500000D02*
X157000000Y-122487246D01*
X159000000Y-124500000D02*
X156000000Y-121500000D01*
X113412754Y-151500000D02*
X115472754Y-151500000D01*
D36*
X105000000Y-151500000D02*
X106000000Y-150500000D01*
D35*
X80620000Y-95120000D02*
X80500000Y-95000000D01*
X119472754Y-151972754D02*
X119472754Y-147500000D01*
X93380000Y-88920000D02*
X93380000Y-89700000D01*
D37*
X138512754Y-156000000D02*
X139500000Y-156000000D01*
D35*
X159012754Y-124500000D02*
X159000000Y-124500000D01*
X80000000Y-85500000D02*
X79000000Y-84500000D01*
X157000000Y-122487246D02*
X157000000Y-121000000D01*
X98380000Y-88920000D02*
X97420000Y-88920000D01*
X93380000Y-88920000D02*
X93380000Y-88380000D01*
X93380000Y-89700000D02*
X90500000Y-92580000D01*
D37*
X94780000Y-70420000D02*
X95920000Y-70420000D01*
D35*
X126962754Y-152462754D02*
X127000000Y-152500000D01*
D37*
X162500000Y-143000000D02*
X162500000Y-141500000D01*
D35*
X101000000Y-98000000D02*
X103000000Y-98000000D01*
D37*
X96000000Y-98000000D02*
X95920000Y-97920000D01*
D35*
X126962754Y-152000000D02*
X123962754Y-155000000D01*
D37*
X79780000Y-71280000D02*
X80000000Y-71500000D01*
D35*
X126962754Y-152000000D02*
X126962754Y-152462754D01*
X78500000Y-94000000D02*
X78000000Y-93500000D01*
D37*
X79780000Y-70420000D02*
X79780000Y-71280000D01*
D35*
X170900000Y-139000000D02*
X172500000Y-139000000D01*
X80000000Y-86000000D02*
X80000000Y-85500000D01*
X121000000Y-149500000D02*
X119472754Y-147972754D01*
D37*
X94780000Y-97920000D02*
X95920000Y-97920000D01*
D35*
X78000000Y-93500000D02*
X78000000Y-92900000D01*
D37*
X180837754Y-146500000D02*
X182500000Y-146500000D01*
D35*
X115472754Y-151500000D02*
X119472754Y-147500000D01*
D37*
X102912754Y-134000000D02*
X103000000Y-134000000D01*
D35*
X122500000Y-155000000D02*
X119472754Y-151972754D01*
X119472754Y-147972754D02*
X119472754Y-147500000D01*
X97420000Y-88920000D02*
X97000000Y-88500000D01*
X82880000Y-95120000D02*
X80620000Y-95120000D01*
D37*
X94400000Y-93500000D02*
X95000000Y-93500000D01*
X161000000Y-152500000D02*
X162050000Y-152500000D01*
D36*
X106000000Y-150500000D02*
X106000000Y-148000000D01*
%TO.N,Net-(D1-+)*%
X72500000Y-141500000D02*
X72772754Y-141772754D01*
D37*
X112000000Y-147500000D02*
X111512754Y-147987246D01*
D36*
X93000000Y-138500000D02*
X75500000Y-138500000D01*
D37*
X112000000Y-147500000D02*
X116932754Y-147500000D01*
D36*
X98500000Y-144000000D02*
X93000000Y-138500000D01*
D35*
X72772754Y-144000000D02*
X72772754Y-144772754D01*
D36*
X98500000Y-148000000D02*
X98500000Y-144000000D01*
D37*
X108500000Y-144000000D02*
X112000000Y-147500000D01*
X102500000Y-144000000D02*
X108500000Y-144000000D01*
X98500000Y-148000000D02*
X102500000Y-144000000D01*
X111512754Y-147987246D02*
X111512754Y-151500000D01*
D36*
X72772754Y-141772754D02*
X72772754Y-144000000D01*
X75500000Y-138500000D02*
X72500000Y-141500000D01*
D37*
%TO.N,/+18v*%
X144000000Y-143500000D02*
X143500000Y-143000000D01*
X159100000Y-144467246D02*
X159100000Y-152500000D01*
X77211500Y-73500000D02*
X77211500Y-129711500D01*
X92500000Y-133500000D02*
X102000000Y-143000000D01*
X157132754Y-142500000D02*
X159100000Y-144467246D01*
X144000000Y-153000000D02*
X144000000Y-143500000D01*
X84000000Y-72500000D02*
X83000000Y-73500000D01*
X77211500Y-129711500D02*
X80500000Y-133000000D01*
X134392754Y-152892754D02*
X135000000Y-153500000D01*
X143500000Y-153500000D02*
X144000000Y-153000000D01*
X135000000Y-153500000D02*
X143500000Y-153500000D01*
X132512754Y-137000000D02*
X139500000Y-137000000D01*
X83000000Y-73500000D02*
X77211500Y-73500000D01*
X125062754Y-150550000D02*
X122012754Y-147500000D01*
X143500000Y-143000000D02*
X142012754Y-143000000D01*
X122012754Y-147500000D02*
X126506377Y-143006377D01*
X125062754Y-152000000D02*
X125062754Y-150550000D01*
X126506377Y-143006377D02*
X132512754Y-137000000D01*
X84000000Y-71000000D02*
X84000000Y-72500000D01*
X141250000Y-138750000D02*
X142012754Y-139512754D01*
X77211500Y-71088500D02*
X77211500Y-73500000D01*
X77880000Y-70420000D02*
X77211500Y-71088500D01*
X142012754Y-139512754D02*
X142012754Y-143000000D01*
X92000000Y-133000000D02*
X92500000Y-133500000D01*
X102000000Y-143000000D02*
X126500000Y-143000000D01*
X134392754Y-150620000D02*
X134392754Y-152892754D01*
X126500000Y-143000000D02*
X126506377Y-143006377D01*
X139500000Y-137000000D02*
X141250000Y-138750000D01*
D35*
X169000000Y-139000000D02*
X168000000Y-139000000D01*
D37*
X134262754Y-138750000D02*
X141250000Y-138750000D01*
X129512754Y-143500000D02*
X134262754Y-138750000D01*
X80500000Y-133000000D02*
X92000000Y-133000000D01*
%TO.N,Net-(U3-CV)*%
X138000000Y-154500000D02*
X138000000Y-154612754D01*
X138000000Y-154612754D02*
X136612754Y-156000000D01*
X142012754Y-150620000D02*
X142012754Y-152487246D01*
X142012754Y-152487246D02*
X142000000Y-152500000D01*
%TO.N,Net-(C5-Pad1)*%
X105540000Y-121040000D02*
X113012754Y-128512754D01*
X102392754Y-121040000D02*
X105540000Y-121040000D01*
X113012754Y-128512754D02*
X113012754Y-134500000D01*
%TO.N,Net-(C6-Pad1)*%
X110000000Y-123500000D02*
X110080000Y-123580000D01*
X107500000Y-130500000D02*
X104512754Y-130500000D01*
X112552754Y-123580000D02*
X110080000Y-123580000D01*
X104512754Y-130500000D02*
X101012754Y-134000000D01*
%TO.N,Net-(C7-Pad1)*%
X115500000Y-123987246D02*
X115500000Y-126500000D01*
X112552754Y-121040000D02*
X115500000Y-123987246D01*
D35*
%TO.N,+5V*%
X89080000Y-71000000D02*
X85080000Y-75000000D01*
X128500000Y-72500000D02*
X127000000Y-74000000D01*
X80540000Y-92580000D02*
X80380000Y-92420000D01*
X82880000Y-92580000D02*
X80540000Y-92580000D01*
D37*
X92880000Y-97920000D02*
X90760000Y-97920000D01*
D35*
X143500000Y-72500000D02*
X128500000Y-72500000D01*
X82080000Y-92580000D02*
X82000000Y-92500000D01*
D37*
X92880000Y-70420000D02*
X92880000Y-71380000D01*
X90760000Y-97920000D02*
X90500000Y-97660000D01*
X92880000Y-71380000D02*
X93000000Y-71500000D01*
D35*
X85080000Y-75000000D02*
X81000000Y-75000000D01*
X81000000Y-75000000D02*
X78500000Y-77500000D01*
D37*
%TO.N,Net-(U6-AREF)*%
X92120000Y-93500000D02*
X90500000Y-95120000D01*
X92500000Y-93500000D02*
X92120000Y-93500000D01*
D35*
%TO.N,Net-(DS1-D7)*%
X91000000Y-115500000D02*
X121500000Y-115500000D01*
X90560000Y-115500000D02*
X91000000Y-115500000D01*
X82880000Y-107820000D02*
X90560000Y-115500000D01*
%TO.N,Net-(U6-XTAL2{slash}PB7)*%
X100280000Y-88920000D02*
X100280000Y-89645000D01*
X93425000Y-96500000D02*
X88000000Y-96500000D01*
X88000000Y-96500000D02*
X84300000Y-100200000D01*
X102000000Y-87200000D02*
X100280000Y-88920000D01*
X84300000Y-100200000D02*
X82880000Y-100200000D01*
X100280000Y-88920000D02*
X100580000Y-88920000D01*
X100280000Y-89645000D02*
X93425000Y-96500000D01*
X102000000Y-86500000D02*
X102000000Y-87200000D01*
D36*
%TO.N,Net-(J2-Pin_1)*%
X78000000Y-147000000D02*
X77852754Y-146852754D01*
X66012754Y-150500000D02*
X74500000Y-150500000D01*
X58512754Y-143000000D02*
X66012754Y-150500000D01*
X77852754Y-146852754D02*
X77852754Y-144000000D01*
X74500000Y-150500000D02*
X78000000Y-147000000D01*
D35*
X58512754Y-143000000D02*
X58512754Y-138987246D01*
%TO.N,Net-(J1-Pin_1)*%
X45012754Y-142500000D02*
X45012754Y-148012754D01*
D36*
X79500000Y-152000000D02*
X82932754Y-148567246D01*
X49000000Y-152000000D02*
X79500000Y-152000000D01*
X45012754Y-148012754D02*
X49000000Y-152000000D01*
X82932754Y-148567246D02*
X82932754Y-144000000D01*
D35*
%TO.N,Net-(DS1-D4)*%
X133300000Y-87500000D02*
X143300000Y-77500000D01*
X84460000Y-90040000D02*
X87500000Y-87000000D01*
X82880000Y-90040000D02*
X84460000Y-90040000D01*
X103500000Y-87500000D02*
X133300000Y-87500000D01*
%TO.N,Net-(DS1-E)*%
X100000000Y-74500000D02*
X103500000Y-74500000D01*
X87380000Y-83000000D02*
X87500000Y-83000000D01*
X110500000Y-81500000D02*
X126600000Y-81500000D01*
X103500000Y-74500000D02*
X110500000Y-81500000D01*
X126600000Y-81500000D02*
X130600000Y-77500000D01*
X82880000Y-87500000D02*
X87380000Y-83000000D01*
%TO.N,Net-(DS1-RS)*%
X91500000Y-73500000D02*
X121520000Y-73500000D01*
X82880000Y-84960000D02*
X89399000Y-78441000D01*
X89399000Y-75601000D02*
X91500000Y-73500000D01*
X89399000Y-78441000D02*
X89399000Y-75601000D01*
X121520000Y-73500000D02*
X125520000Y-77500000D01*
%TO.N,Net-(DS1-VO)*%
X126721000Y-76602530D02*
X114618470Y-64500000D01*
X124581000Y-79101000D02*
X126017470Y-79101000D01*
X114618470Y-64500000D02*
X105540000Y-64500000D01*
X126017470Y-79101000D02*
X126721000Y-78397470D01*
X126721000Y-78397470D02*
X126721000Y-76602530D01*
X122980000Y-77500000D02*
X124581000Y-79101000D01*
X105540000Y-64500000D02*
X102540000Y-67500000D01*
%TO.N,Net-(DS1-D6)*%
X92100000Y-114500000D02*
X82880000Y-105280000D01*
X121000000Y-114500000D02*
X92100000Y-114500000D01*
%TO.N,Net-(DS1-D5)*%
X82880000Y-102740000D02*
X84140000Y-104000000D01*
X84140000Y-104000000D02*
X97000000Y-104000000D01*
%TO.N,Net-(DS1-LED(+))*%
X148460000Y-72500000D02*
X145325000Y-72500000D01*
X153460000Y-77500000D02*
X148460000Y-72500000D01*
%TO.N,Net-(J3-Pin_1)*%
X99175000Y-95050000D02*
X98361500Y-95863500D01*
D37*
X130012754Y-123500000D02*
X130012754Y-121000000D01*
D35*
X128969918Y-121000000D02*
X130012754Y-121000000D01*
X119469918Y-111500000D02*
X128969918Y-121000000D01*
X98361500Y-95863500D02*
X98361500Y-110361500D01*
X99500000Y-111500000D02*
X119469918Y-111500000D01*
D37*
X145500000Y-135500000D02*
X133500000Y-123500000D01*
X133500000Y-123500000D02*
X130012754Y-123500000D01*
D35*
X98361500Y-110361500D02*
X99500000Y-111500000D01*
D37*
X157517754Y-132500000D02*
X148500000Y-132500000D01*
X145500000Y-135500000D02*
X145500000Y-124512754D01*
X145500000Y-124512754D02*
X146012754Y-124000000D01*
X148500000Y-132500000D02*
X145500000Y-135500000D01*
X168707754Y-143690000D02*
X157517754Y-132500000D01*
%TO.N,Net-(U3-DIS)*%
X131337754Y-143500000D02*
X131337754Y-145162246D01*
X131881754Y-149369000D02*
X137869000Y-149369000D01*
X138540000Y-145540000D02*
X142012754Y-145540000D01*
X138000000Y-149500000D02*
X138000000Y-146000000D01*
X131337754Y-145162246D02*
X131000000Y-145500000D01*
X131000000Y-145500000D02*
X129500000Y-145500000D01*
X129512754Y-147000000D02*
X131881754Y-149369000D01*
X138500000Y-145500000D02*
X138540000Y-145540000D01*
X138000000Y-146000000D02*
X138500000Y-145500000D01*
X129500000Y-145500000D02*
X129512754Y-145512754D01*
X137869000Y-149369000D02*
X138000000Y-149500000D01*
X129512754Y-145512754D02*
X129512754Y-147000000D01*
%TO.N,Net-(R2-Pad2)*%
X96525000Y-120525000D02*
X90012754Y-120525000D01*
X131337754Y-147000000D02*
X132500000Y-147000000D01*
X97000000Y-121000000D02*
X96525000Y-120525000D01*
%TO.N,Net-(U5A-+)*%
X164762754Y-144825000D02*
X168707754Y-148770000D01*
X162500000Y-148500000D02*
X162500000Y-144825000D01*
X162500000Y-144825000D02*
X164762754Y-144825000D01*
%TO.N,Net-(U2A-Q)*%
X150000000Y-142500000D02*
X152000000Y-140500000D01*
D35*
X80087500Y-84412500D02*
X78175000Y-82500000D01*
D37*
X152000000Y-140500000D02*
X159000000Y-140500000D01*
X160000000Y-141500000D02*
X160000000Y-147825000D01*
X160000000Y-147825000D02*
X162500000Y-150325000D01*
X149512754Y-142500000D02*
X150000000Y-142500000D01*
X159000000Y-140500000D02*
X160000000Y-141500000D01*
D35*
%TO.N,Net-(U6-~{RESET}{slash}PC6)*%
X80325000Y-77500000D02*
X82720000Y-77500000D01*
X82720000Y-77500000D02*
X82880000Y-77340000D01*
D37*
%TO.N,Net-(U5A--)*%
X180837754Y-148325000D02*
X179012754Y-146500000D01*
X180837754Y-150000000D02*
X180837754Y-148325000D01*
X179012754Y-146500000D02*
X178031754Y-147481000D01*
X169958754Y-147481000D02*
X168707754Y-146230000D01*
X178031754Y-147481000D02*
X169958754Y-147481000D01*
%TO.N,Net-(R7-Pad1)*%
X143500000Y-134988774D02*
X143500000Y-140000000D01*
X134511226Y-126000000D02*
X143500000Y-134988774D01*
X179000000Y-154500000D02*
X179000000Y-150012754D01*
X179000000Y-150012754D02*
X179012754Y-150000000D01*
X130012754Y-126000000D02*
X134511226Y-126000000D01*
D35*
%TO.N,Net-(U6-XTAL1{slash}PB6)*%
X95280000Y-88920000D02*
X91601000Y-92599000D01*
X95280000Y-88920000D02*
X100760000Y-83440000D01*
X100760000Y-83440000D02*
X100760000Y-82920000D01*
X91601000Y-92599000D02*
X91601000Y-93036050D01*
X91601000Y-93036050D02*
X90637050Y-94000000D01*
X90637050Y-94000000D02*
X86540000Y-94000000D01*
X86540000Y-94000000D02*
X82880000Y-97660000D01*
D37*
%TO.N,Net-(SW2-Common)*%
X90000000Y-126000000D02*
X90000000Y-128410718D01*
X90012754Y-123025000D02*
X90012754Y-125525000D01*
X102589282Y-141000000D02*
X126000000Y-141000000D01*
X90012754Y-125525000D02*
X90012754Y-125987246D01*
X90000000Y-128410718D02*
X102589282Y-141000000D01*
X90012754Y-125525000D02*
X100447754Y-125525000D01*
X100447754Y-125525000D02*
X102392754Y-123580000D01*
X90012754Y-125987246D02*
X90000000Y-126000000D01*
%TO.N,Net-(U2A-D)*%
X149512754Y-152660000D02*
X146500000Y-149647246D01*
X146500000Y-149647246D02*
X146500000Y-148052754D01*
X146500000Y-148052754D02*
X149512754Y-145040000D01*
D35*
%TO.N,Net-(U5B--)*%
X174270000Y-146230000D02*
X176327754Y-146230000D01*
X174000000Y-146500000D02*
X174270000Y-146230000D01*
X173500000Y-146500000D02*
X174000000Y-146500000D01*
X173770000Y-148770000D02*
X173500000Y-148500000D01*
X176327754Y-148770000D02*
X173770000Y-148770000D01*
%TO.N,Net-(U6-PB0)*%
X80499330Y-86999330D02*
X80497660Y-87001000D01*
X81101000Y-83601000D02*
X81101000Y-86397660D01*
X79579000Y-107059000D02*
X82880000Y-110360000D01*
X80499330Y-86999330D02*
X79579000Y-87919660D01*
X79579000Y-87919660D02*
X79579000Y-107059000D01*
X79176000Y-87001000D02*
X78175000Y-86000000D01*
X80000000Y-82500000D02*
X81101000Y-83601000D01*
X81101000Y-86397660D02*
X80499330Y-86999330D01*
X80497660Y-87001000D02*
X79176000Y-87001000D01*
%TO.N,Net-(U6-PC0)*%
X101000000Y-95050000D02*
X101000000Y-96175000D01*
X101000000Y-96175000D02*
X99175000Y-98000000D01*
X101000000Y-93500000D02*
X100500000Y-93000000D01*
X101000000Y-95050000D02*
X101000000Y-93500000D01*
%TD*%
M02*
